<svg id="bars-single-page" xmlns="http://www.w3.org/2000/svg" viewBox="0 0 768 480.259" preserveAspectRatio="none">
  <defs>
    <style>
      .cls-1 {
        fill: none;
        stroke-miterlimit: 10;
      }

      .cls-2, .cls-3, .cls-4, .cls-5 {
        stroke: none;
      }

      .cls-3 {
        fill: #d8127d;
      }

      .cls-4 {
        fill: #fff101;
      }

      .cls-5 {
        fill: #005baa;
      }
    </style>
  </defs>
  <g id="Rectangle_213" data-name="Rectangle 213" class="cls-1" transform="translate(7.99)">
    <path class="cls-2" d="M738.185,0l9.841,432.461L5.032,480.259,0,13.87Z"/>
    <path class="cls-3" d="M 737.2079467773438 1.01849365234375 L 1.0106201171875 14.85116577148438 L 6.0205078125 479.1931762695312 L 747.0044555664062 431.524169921875 L 737.2079467773438 1.01849365234375 M 738.1849975585938 0 L 748.0260009765625 432.4605102539062 L 5.031982421875 480.2587890625 L 0 13.8699951171875 L 738.1849975585938 0 Z"/>
  </g>
  <g id="Rectangle_213_Copy" data-name="Rectangle 213 Copy" class="cls-1" transform="translate(0 14.374)">
    <path class="cls-2" d="M768,0,750.388,463.832,20.6,450.561,0,0Z"/>
    <path class="cls-4" d="M 1.04681396484375 0.99993896484375 L 21.55816650390625 449.5778198242188 L 749.4263916015625 462.8140258789062 L 766.9613037109375 0.99993896484375 L 1.04681396484375 0.99993896484375 M 0 -6.103515625e-05 L 768 -6.103515625e-05 L 750.3884887695312 463.8316345214844 L 20.60198974609375 450.560546875 L 0 -6.103515625e-05 Z"/>
  </g>
  <g id="Rectangle_213_Copy_2" data-name="Rectangle 213 Copy 2" class="cls-1" transform="translate(4.993 2.053)">
    <path class="cls-2" d="M758.013,0l-4.928,447.4H0L10.953,34.037Z"/>
    <path class="cls-5" d="M 757.00146484375 1.047149658203125 L 11.9278564453125 34.99392700195312 L 1.02679443359375 446.4045715332031 L 724.5037231445312 446.4045715332031 L 752.0960693359375 446.4045715332031 L 757.00146484375 1.047149658203125 M 758.0130004882812 0 L 753.0850830078125 447.4045715332031 L 724.5037231445312 447.4045715332031 L 0 447.4045715332031 L 10.952880859375 34.03729248046875 L 758.0130004882812 0 Z"/>
  </g>
</svg>
