<svg xmlns="http://www.w3.org/2000/svg" viewBox="0 0 697.035 186.038" preserveAspectRatio="none"><defs><style>.a{fill:none;stroke-miterlimit:10;}.b,.c,.d,.e{stroke:none;}.c{fill:#d8127d;}.d{fill:#fff101;}.e{fill:#005baa;}</style></defs><g transform="translate(-0.022 -0.906)"><g class="a" transform="translate(7.784 0.906)"><path class="b" d="M670.939,0l8.945,167.522L4.574,186.038,0,5.373Z"/><path class="c" d="M 669.990966796875 1.007598876953125 L 1.025390625 6.364715576171875 L 5.54779052734375 185.0109405517578 L 678.829833984375 166.5509033203125 L 669.990966796875 1.007598876953125 M 670.9385375976562 -4.57763671875e-05 L 679.883056640625 167.5223999023438 L 4.57354736328125 186.0380401611328 L 0 5.37286376953125 L 670.9385375976562 -4.57763671875e-05 Z"/></g><g class="a" transform="translate(0.022 6.279)"><path class="b" d="M697.035,0,681.051,179.718,18.7,174.576,0,0Z"/><path class="d" d="M 1.11279296875 0.999969482421875 L 19.59765625 173.5829772949219 L 680.1361694335938 178.7109832763672 L 695.9418334960938 0.999969482421875 L 1.11279296875 0.999969482421875 M 0 -3.0517578125e-05 L 697.0347290039062 -3.0517578125e-05 L 681.050537109375 179.7181396484375 L 18.6983642578125 174.5760498046875 L 0 -3.0517578125e-05 Z"/></g><g class="a" transform="translate(4.334 1.723)"><path class="b" d="M687.645,0l-4.47,173.842H0L9.936,13.225Z"/><path class="e" d="M 686.6185913085938 1.020263671875 L 10.877197265625 14.20732116699219 L 1.063720703125 172.8423919677734 L 657.24658203125 172.8423919677734 L 682.2003173828125 172.8423919677734 L 686.6185913085938 1.020263671875 M 687.6451416015625 3.0517578125e-05 L 683.1748657226562 173.8423919677734 L 657.24658203125 173.8423919677734 L -6.103515625e-05 173.8423919677734 L 9.93603515625 13.22547912597656 L 687.6451416015625 3.0517578125e-05 Z"/></g></g></svg>
