<?xml version="1.0" encoding="utf-8"?>
<!-- Generator: Adobe Illustrator 22.0.1, SVG Export Plug-In . SVG Version: 6.00 Build 0)  -->
<svg version="1.1" id="Calque_1" xmlns="http://www.w3.org/2000/svg" xmlns:xlink="http://www.w3.org/1999/xlink" x="0px" y="0px"
	 viewBox="0 0 297.6 286.7" style="enable-background:new 0 0 297.6 286.7;" xml:space="preserve" preserveAspectRatio="none">
<style type="text/css">
	.st0{fill:none;}
	.st1{fill:#D8127D;}
	.st2{fill:#FFF101;}
	.st3{fill:#005BAA;}
</style>
<g id="bars-bg-verticle-2" transform="translate(297.945) rotate(90)">
	<g id="Rectangle_213" transform="translate(1.858 0.953)">
		<path class="st0" d="M280.2,5.2l-8.4,284.1l-257.4,6.8L0,0L280.2,5.2z"/>
		<path class="st1" d="M1.1,1l14.3,294l255.5-6.7l8.3-282.1L1.1,1 M0,0l280.2,5.2l-8.4,284.1l-257.4,6.8L0,0z"/>
	</g>
	<g id="Rectangle_213_Copy" transform="translate(6.502 0.336)">
		<path class="st0" d="M258.7,0v297.6l-255-4.7L0,7.9L258.7,0z"/>
		<path class="st2" d="M257.7,1L1,8.9l3.7,283l253,4.6V1 M258.7,0v297.6l-255-4.7L0,7.9L258.7,0z"/>
	</g>
	<g id="Rectangle_213_Copy_2" transform="translate(0 12.1)">
		<path class="st0" d="M286.7,0l-22.1,268H0V7L286.7,0z"/>
		<path class="st3" d="M285.6,1L1,8V267h262.7L285.6,1 M286.7,0l-22.1,268H0V7L286.7,0z"/>
	</g>
</g>
</svg>
