<svg id="Group_5_Copy" data-name="Group 5 Copy" xmlns="http://www.w3.org/2000/svg" viewBox="0 0 340 306" preserveAspectRatio="none">
  <defs>
    <style>
      .cls-1 {
        fill: none;
        stroke-miterlimit: 10;
      }

      .cls-2, .cls-3, .cls-4, .cls-5 {
        stroke: none;
      }

      .cls-3 {
        fill: #d8127d;
      }

      .cls-4 {
        fill: #fff101;
      }

      .cls-5 {
        fill: #005baa;
      }
    </style>
  </defs>
  <g id="Rectangle_213" data-name="Rectangle 213" class="cls-1" transform="translate(4)">
    <path class="cls-2" d="M326.645,0,331,275.545,2.227,306,0,8.837Z"/>
    <path class="cls-3" d="M 324.6775512695312 2.053985595703125 L 2.0146484375 10.78359985351562 L 4.21026611328125 303.8077087402344 L 328.970947265625 273.7244262695312 L 324.6775512695312 2.053985595703125 M 326.6453552246094 0 L 331 275.5450134277344 L 2.22662353515625 306 L 0 8.837371826171875 L 326.6453552246094 0 Z"/>
  </g>
  <g id="Rectangle_213_Copy" data-name="Rectangle 213 Copy" class="cls-1" transform="translate(0 9)">
    <path class="cls-2" d="M340,0l-7.8,295L9.121,286.559,0,0Z"/>
    <path class="cls-4" d="M 2.064666748046875 2 L 11.05966186523438 284.6094360351562 L 330.2567138671875 292.948486328125 L 337.9464416503906 2 L 2.064666748046875 2 M 0 0 L 340 0 L 332.2031860351562 295 L 9.120697021484375 286.5594482421875 L 0 0 Z"/>
  </g>
  <g id="Rectangle_213_Copy_2" data-name="Rectangle 213 Copy 2" class="cls-1" transform="translate(2 2)">
    <path class="cls-2" d="M335,0l-2.178,286H0L4.841,21.758Z"/>
    <path class="cls-5" d="M 332.983642578125 2.137237548828125 L 6.806610107421875 23.63287353515625 L 2.0369873046875 284 L 320.1907348632812 284 L 330.8373413085938 284 L 332.983642578125 2.137237548828125 M 335 0 L 332.8221740722656 286 L 320.1907348632812 286 L 0 286 L 4.840576171875 21.75808715820312 L 335 0 Z"/>
  </g>
</svg>
