<svg xmlns="http://www.w3.org/2000/svg" viewBox="0 0 286.689 297.61" preserveAspectRatio="none">
  <defs>
    <style>
      .cls-1 {
        fill: none;
        stroke-miterlimit: 10;
      }

      .cls-2, .cls-3, .cls-4, .cls-5 {
        stroke: none;
      }

      .cls-3 {
        fill: #d8127d;
      }

      .cls-4 {
        fill: #fff101;
      }

      .cls-5 {
        fill: #005baa;
      }
    </style>
  </defs>
  <g id="bars-bg-verticle-2" transform="translate(0 -0.336)">
    <g id="Rectangle_213" data-name="Rectangle 213" class="cls-1" transform="translate(1.858 0.953)">
      <path class="cls-2" d="M280.187,5.208,271.81,289.3l-257.4,6.767L0,0Z"/>
      <path class="cls-3" d="M 1.05078125 1.01971435546875 L 15.35757446289062 295.0387268066406 L 270.838623046875 288.3218688964844 L 279.1576232910156 6.189208984375 L 1.05078125 1.01971435546875 M 0 0 L 280.1869812011719 5.208160400390625 L 271.8103332519531 289.2966613769531 L 14.40631103515625 296.0640869140625 L 0 0 Z"/>
    </g>
    <g id="Rectangle_213_Copy" data-name="Rectangle 213 Copy" class="cls-1" transform="translate(6.502 0.336)">
      <path class="cls-2" d="M258.689,0V297.61L3.7,292.938,0,7.941Z"/>
      <path class="cls-4" d="M 257.6890563964844 1.03118896484375 L 1.012664794921875 8.91064453125 L 4.68548583984375 291.9556884765625 L 257.6890563964844 296.5913391113281 L 257.6890563964844 1.03118896484375 M 258.6890563964844 0 L 258.6890563964844 297.60986328125 L 3.698150634765625 292.9377746582031 L 0 7.941253662109375 L 258.6890563964844 0 Z"/>
    </g>
    <g id="Rectangle_213_Copy_2" data-name="Rectangle 213 Copy 2" class="cls-1" transform="translate(0 12.1)">
      <path class="cls-2" d="M286.689,0,264.578,268.01H0V6.976Z"/>
      <path class="cls-5" d="M 285.6013488769531 1.0267333984375 L 1 7.952423095703125 L 1 267.0097045898438 L 263.6569213867188 267.0097045898438 L 285.6013488769531 1.0267333984375 M 286.689453125 -3.0517578125e-05 L 264.5777893066406 268.0097045898438 L 0 268.0097045898438 L 0 6.976470947265625 L 286.689453125 -3.0517578125e-05 Z"/>
    </g>
  </g>
</svg>
