<svg id="events-address-bars" xmlns="http://www.w3.org/2000/svg" viewBox="0 0 296 149" preserveAspectRatio="none">
  <defs>
    <style>
      .cls-1 {
        fill: none;
        stroke-miterlimit: 10;
      }

      .cls-2, .cls-3, .cls-4, .cls-5 {
        stroke: none;
      }

      .cls-3 {
        fill: #d8127d;
      }

      .cls-4 {
        fill: #fff101;
      }

      .cls-5 {
        fill: #005baa;
      }
    </style>
  </defs>
  <g id="Rectangle_213" data-name="Rectangle 213" class="cls-1" transform="translate(3.062)">
    <path class="cls-2" d="M285.055,0l3.8,134.171L1.943,149,0,4.3Z"/>
    <path class="cls-3" d="M 284.0833435058594 1.014785766601562 L 1.013336181640625 5.2879638671875 L 2.929107666015625 147.9477233886719 L 287.827880859375 133.2223815917969 L 284.0833435058594 1.014785766601562 M 285.0549926757812 0 L 288.8551635742188 134.1706085205078 L 1.943115234375 149 L 0 4.303146362304688 L 285.0549926757812 0 Z"/>
  </g>
  <g id="Rectangle_213_Copy" data-name="Rectangle 213 Copy" class="cls-1" transform="translate(0 4.139)">
    <path class="cls-2" d="M296,0l-6.788,144.861L7.94,140.716,0,0Z"/>
    <path class="cls-4" d="M 1.05804443359375 0.9999847412109375 L 8.88629150390625 139.7302093505859 L 288.2586364746094 143.8469390869141 L 294.9520263671875 0.9999847412109375 L 1.05804443359375 0.9999847412109375 M 0 -1.52587890625e-05 L 296 -1.52587890625e-05 L 289.2122192382812 144.8610992431641 L 7.940338134765625 140.7163696289062 L 0 -1.52587890625e-05 Z"/>
  </g>
  <g id="Rectangle_213_Copy_2" data-name="Rectangle 213 Copy 2" class="cls-1" transform="translate(2.041 1.035)">
    <path class="cls-2" d="M292.938,0l-1.9,138.653H0l4.233-128.1Z"/>
    <path class="cls-5" d="M 291.9235534667969 1.037734985351562 L 5.201416015625 11.51359558105469 L 1.033599853515625 137.6527709960938 L 279.9880676269531 137.6527709960938 L 290.0471496582031 137.6527709960938 L 291.9235534667969 1.037734985351562 M 292.9379272460938 0 L 291.0335388183594 138.6527709960938 L 279.9880676269531 138.6527709960938 L 0 138.6527709960938 L 4.232757568359375 10.54830932617188 L 292.9379272460938 0 Z"/>
  </g>
</svg>
