<svg xmlns="http://www.w3.org/2000/svg" viewBox="0 0 355 462.499" preserveAspectRatio="none">
  <defs>
    <style>
      .cls-1 {
        fill: none;
        stroke-miterlimit: 10;
      }

      .cls-2, .cls-3, .cls-4, .cls-5 {
        stroke: none;
      }

      .cls-3 {
        fill: #d8127d;
      }

      .cls-4 {
        fill: #fff101;
      }

      .cls-5 {
        fill: #005baa;
      }
    </style>
  </defs>
  <g id="Groupe_97" data-name="Groupe 97" transform="translate(-543 -836.336)">
    <g id="bars-bg-verticle-2" transform="translate(543 836)">
      <g id="Rectangle_213" data-name="Rectangle 213" class="cls-1" transform="translate(2 1)">
        <path class="cls-2" d="M348,8.107,337.6,450.3l-319.7,10.534L0,0Z"/>
        <path class="cls-3" d="M 1.04052734375 1.02447509765625 L 18.85366821289062 459.8022766113281 L 336.6184692382812 449.3323669433594 L 346.9767761230469 9.0831298828125 L 1.04052734375 1.02447509765625 M 0 0 L 348 8.106719970703125 L 337.595947265625 450.3007202148438 L 17.89300537109375 460.83447265625 L 0 0 Z"/>
      </g>
      <g id="Rectangle_213_Copy" data-name="Rectangle 213 Copy" class="cls-1" transform="translate(7 0.336)">
        <path class="cls-2" d="M324.857,0V462.5L4.644,455.238,0,12.341Z"/>
        <path class="cls-4" d="M 323.8571472167969 1.0386962890625 L 1.0101318359375 13.30340576171875 L 5.63385009765625 454.2600708007812 L 323.8571472167969 461.4755554199219 L 323.8571472167969 1.0386962890625 M 324.8571472167969 -3.0517578125e-05 L 324.8571472167969 462.4985046386719 L 4.64404296875 455.2379150390625 L 0 12.34103393554688 L 324.8571472167969 -3.0517578125e-05 Z"/>
      </g>
      <g id="Rectangle_213_Copy_2" data-name="Rectangle 213 Copy 2" class="cls-1" transform="translate(0 13)">
        <path class="cls-2" d="M355,0,327.62,430.634H0V11.21Z"/>
        <path class="cls-5" d="M 353.9322204589844 1.034210205078125 L 1 12.17864990234375 L 1 429.633544921875 L 326.6812133789062 429.633544921875 L 353.9322204589844 1.034210205078125 M 355 0 L 327.6196594238281 430.633544921875 L 0 430.633544921875 L 0 11.209716796875 L 355 0 Z"/>
      </g>
    </g>
  </g>
</svg>
