<svg id="Logo" xmlns="http://www.w3.org/2000/svg" viewBox="0 0 207 192">
  <defs>
    <style>
      .cls-1 {
        fill: #005baa;
      }

      .cls-2 {
        fill: #fff101;
      }

      .cls-3 {
        fill: #009949;
      }

      .cls-4 {
        fill: #d8127d;
      }

      .cls-5 {
        fill: #fffffe;
      }
    </style>
  </defs>
  <path id="Fill_1" data-name="Fill 1" class="cls-1" d="M115.356,178a126.9,126.9,0,0,1-21.094-2.19c-17.781-3.215-35.388-6.119-51.766-8.779-.17-.027-.411-.066-.768-.117-.6-.836-1.2-1.715-1.792-2.614,1.071.113,2.032.239,2.938.385,16.413,2.666,34.049,5.576,51.809,8.788a122.763,122.763,0,0,0,21.888,2.159c.472,0,1.022-.005,1.636-.015A35.9,35.9,0,0,1,115.356,178Zm3.76-.027h0a34.718,34.718,0,0,0,2.534-2.481c1.377-.076,2.747-.185,4.071-.323a63.278,63.278,0,0,0,24-7.449c7.379-4.041,13.16-9.741,17.842-14.784a47.3,47.3,0,0,0,12.659-27.99,93.848,93.848,0,0,0,.413-9.86c-.033-10.753-2.37-19.577-7.145-26.975a72.183,72.183,0,0,0-10.091-12.721c.259-.869.5-1.745.7-2.6A72.2,72.2,0,0,1,175.475,86.82c5.029,7.795,7.49,17.037,7.524,28.256a95.16,95.16,0,0,1-.426,10.109,49.616,49.616,0,0,1-13.28,29.366c-4.806,5.178-10.755,11.04-18.443,15.252a65.653,65.653,0,0,1-24.888,7.727C123.753,177.762,121.45,177.911,119.116,177.973Zm-98.2-8.592a3.927,3.927,0,0,1-1.956-.545l-.368-.21-.152-.4c-.025-.064-.056-.125-.089-.19l-.02-.038a2.254,2.254,0,0,1-.323-1.352c1.256-9.641-.566-19.256-2.327-28.554l0-.011-.45-2.383C13.844,128.3,11.381,121.024,9,113.99l-.005-.014-.027-.077,0-.007-.067-.2c-.553-1.632-1.24-3.664-1.868-5.581A146.351,146.351,0,0,1,0,63.032a7.315,7.315,0,0,1,.594.691c.63.837,1.242,1.674,1.819,2.489a143.131,143.131,0,0,0,6.87,41.161c.608,1.858,1.263,3.793,1.841,5.5l.069.2.043.127.007.022,0,.01c2.408,7.109,4.9,14.46,6.312,22.029l.448,2.374c1.788,9.435,3.638,19.191,2.372,29.161l.059.114a1.316,1.316,0,0,0,.469.085,3.759,3.759,0,0,0,2.114-1.148,9.707,9.707,0,0,1,6.336-2.224c.269,0,.558.01.86.029,1.147.077,2.273.138,3.327.194l.039,0,.172.009h.013c1.041.057,2.115.115,3.192.188.527.844,1.075,1.688,1.63,2.507-1.754-.153-3.543-.249-5.122-.333l-.049,0c-1.017-.054-2.2-.117-3.362-.2-.214-.017-.447-.025-.691-.025a7.317,7.317,0,0,0-4.841,1.684A5.806,5.806,0,0,1,20.916,169.381ZM161.44,73.588h0c-.568-.5-1.149-.978-1.728-1.433-3.3-2.6-6.713-5.289-10.8-6.6a64.46,64.46,0,0,0-19.959-2.887c-.534,0-1.018,0-1.439.012a23.06,23.06,0,0,0-4.287.627l-.677.141c-2.108.432-4.241.914-6.3,1.381l-.018,0-.134.031-.2.045-.134.031-.015,0-.419.095-.017,0c-.705.159-1.435.324-2.163.486l-1.481.33.039-1.522c.034-1.266.056-2.539.073-3.616v-.029c.044-2.609.086-5.072.25-7.6a42.944,42.944,0,0,0-3.791-20.452c-.274-.624-.54-1.265-.775-1.832l-.011-.026,0-.006a21.8,21.8,0,0,0-3.635-6.582c-1.865-2.042-3.937-3.965-5.941-5.824l-.025-.024-.007-.006-.194-.179L97.6,18.12c-1.006-.935-1.911-1.779-2.8-2.633a40.391,40.391,0,0,0-8.248-6.164c1.067-.265,2.162-.509,3.347-.748a43.276,43.276,0,0,1,6.546,5.2c.921.891,1.9,1.8,2.765,2.6l.048.045.188.175.023.022c2.038,1.89,4.145,3.844,6.089,5.971a23.865,23.865,0,0,1,4.072,7.264l0,.012,0,.005.017.041c.251.606.5,1.2.748,1.772a45.243,45.243,0,0,1,3.986,21.562c-.161,2.515-.2,5.153-.243,7.481v.1c-.009.549-.021,1.3-.038,2.052l.284-.064.8-.18.258-.059.122-.028.052-.012.1-.022.038-.009c2.172-.49,4.223-.953,6.315-1.384l.667-.139.041-.008a24.876,24.876,0,0,1,4.693-.669c.541-.008,1.038-.013,1.477-.013a66.766,66.766,0,0,1,20.682,3c4.486,1.437,8.066,4.258,11.528,6.986.279.219.575.458.9.729-.187.869-.4,1.736-.629,2.578ZM2.37,62.141l0,0A16.747,16.747,0,0,0,.319,60.074l-.2-.178-.082-.074c.041-1.355.117-2.688.226-3.965H.378a20.382,20.382,0,0,0,2.275-.13c-.182,2.011-.278,4.162-.283,6.394v.02ZM.51,53.482h0A48.069,48.069,0,0,1,4.672,38.512a91.131,91.131,0,0,1,7.935-13.833A54.02,54.02,0,0,1,24.341,12.408c.807-.6,1.645-1.189,2.456-1.76,1.023-.721,2.08-1.466,3.08-2.229.68-.519,1.456-1.028,2.206-1.521.587-.386,1.193-.784,1.749-1.184A28.961,28.961,0,0,1,47.273.577,79.646,79.646,0,0,1,56.774,0,73.489,73.489,0,0,1,76.381,2.632,50.675,50.675,0,0,1,86.9,6.8c-1.229.288-2.367.587-3.478.915a49.924,49.924,0,0,0-7.67-2.79,71.144,71.144,0,0,0-18.98-2.547,77.287,77.287,0,0,0-9.215.561A26.593,26.593,0,0,0,35.215,7.643c-.546.394-1.147.788-1.729,1.169-.738.484-1.5.985-2.173,1.5-.86.656-1.773,1.292-2.657,1.907-1,.693-2.024,1.409-3,2.17A56.615,56.615,0,0,0,14.437,26.3a86.379,86.379,0,0,0-7.624,13.23A45.407,45.407,0,0,0,2.92,53.3,18.51,18.51,0,0,1,.51,53.482Z" transform="translate(24)"/>
  <path id="Fill_3" data-name="Fill 3" class="cls-2" d="M92.209,188c-1.293,0-2.6-.044-3.882-.13l-1.962-.122-.094-.006-.035,0-.04,0c-2.414-.151-4.91-.308-7.4-.584a35.827,35.827,0,0,1-20.946-9.569,84.4,84.4,0,0,1-12.4-14.38c1.177.1,2.209.221,3.155.356a82.577,82.577,0,0,0,10.873,12.288,33.49,33.49,0,0,0,19.581,8.942c2.432.27,4.916.426,7.318.577l.041,0,.046,0,.052,0,1.97.123c1.231.082,2.494.124,3.753.124a41.092,41.092,0,0,0,21.472-5.557c.706-.417,1.431-.812,2.131-1.193l.015-.008.013-.006.065-.035.085-.046.01-.005.086-.046c.455-.245.884-.477,1.317-.721a47.015,47.015,0,0,0,5.2-3.355c.306,0,.68.006,1.211.006h.012c.92,0,1.78-.011,2.555-.033a45.284,45.284,0,0,1-7.81,5.454c-.442.248-.922.508-1.239.68l-.035.019-.009,0-.1.053-.064.034-.076.041-.054.03-.044.024c-.641.347-1.368.739-2.055,1.148A43.453,43.453,0,0,1,92.209,188ZM125.5,172.268h0a28.289,28.289,0,0,0,6.7-9.207c.352-.776.713-1.546,1.115-2.4l.058-.122.026-.056.09-.192,0-.008,0-.008a58.875,58.875,0,0,0,3.717-9.162c1.3-4.673,2.449-9.269,2.241-14.126a56.851,56.851,0,0,0-6.714-24.69c-.267-.5-.542-1-.833-1.536l-.114-.21-.21-.385-1.756-3.228,2.081.072c.187.005.316.007.432.007,3.778,0,6.191-1.6,8.744-3.295l.158-.105c.2-.134.415-.294.571-.411l.012-.009.036-.027.075-.057a8.574,8.574,0,0,1,1.657-1.066c4.85-2.195,8.376-5.885,12.109-9.791l.021-.022c.686-.718,1.722-1.8,2.7-2.787a39.88,39.88,0,0,0,8.863-14.176,52.465,52.465,0,0,0,1.681-5.081c.67.582,1.33,1.187,1.964,1.8-.41,1.371-.889,2.763-1.422,4.137a42.247,42.247,0,0,1-9.4,15c-.885.884-1.71,1.745-2.619,2.7l-.056.058c-3.728,3.9-7.583,7.938-12.862,10.329a6.615,6.615,0,0,0-1.19.787l-.007.005-.027.021,0,0c-.212.161-.5.382-.786.569l-.159.105c-2.419,1.607-4.921,3.268-8.568,3.624l.075.138,0,.006.131.242.021.037.052.1.1.189c.228.419.424.779.619,1.141a59.207,59.207,0,0,1,6.994,25.712c.221,5.208-1.027,10.2-2.325,14.862a60.838,60.838,0,0,1-3.855,9.537l-.006.013c-.417.881-.859,1.818-1.279,2.742a30.384,30.384,0,0,1-5.409,8.1C127.832,172.205,126.67,172.247,125.5,172.268ZM46.8,160.946h0c-.909-.094-1.86-.174-2.991-.251A83.916,83.916,0,0,1,39,151.9c-4.754-10.084-7.081-20.9-9.332-31.358l-.135-.626c-.42-1.952-.835-3.942-1.236-5.866l-.078-.374-.073-.352,0-.016-.083-.4-.005-.028,0-.02c-1.41-6.8-2.868-13.825-4.764-20.613A94.557,94.557,0,0,0,9.072,62.809c-.031-1.256-.046-2.626-.044-4.072.015.017.029.035.041.052l.013.016.016.022.005.006a.174.174,0,0,0,.013.019l0,.006.023.031A97.586,97.586,0,0,1,25.583,91.609c1.925,6.894,3.388,13.948,4.8,20.77l.006.029,0,.018.016.079v.005l.031.149c.433,2.084.924,4.447,1.422,6.757l.134.626,0,.014c2.223,10.324,4.522,21,9.157,30.832a81.251,81.251,0,0,0,5.64,10.055ZM171.636,69.383h0c-.675-.62-1.36-1.217-2.036-1.773a44.576,44.576,0,0,0,.688-14.938A39.437,39.437,0,0,0,165.858,38c-.116-.208-.233-.412-.346-.61l0,0-.062-.109,0-.005a19.866,19.866,0,0,1-1.912-4.161,18.81,18.81,0,0,0-3.992-6.866A79.98,79.98,0,0,0,138.585,8.564c-7.21-4.221-13.52-6.187-19.858-6.187-.508,0-1.022.013-1.53.04A125.564,125.564,0,0,0,104.221,3.9l-.01,0-.049.008c-2.3.366-4.687.745-7.12,1.232-.985-.632-2-1.231-3.023-1.778,3.355-.782,6.625-1.3,9.787-1.8l.04-.006A128.468,128.468,0,0,1,117.073.043c.547-.029,1.1-.043,1.653-.043C125.5,0,132.2,2.07,139.792,6.514a82.374,82.374,0,0,1,21.578,18.2,30.04,30.04,0,0,1,4.385,7.546l0,.007.033.074c.7,1.526,1.057,2.258,1.6,3.366l.011.024.013.028.212.434.02.041.225.461.073.15a48.155,48.155,0,0,1,4.709,15.541A47.017,47.017,0,0,1,171.636,69.383ZM6.646,59.627l0,0c-.395-.41-.857-.82-1.264-1.181l-.2-.182c-.676-.6-1.364-1.186-2.194-1.886l0,0,0,0c-.553-.467-1.179-1-1.784-1.525a2.811,2.811,0,0,1-.657-3.913A3.485,3.485,0,0,1,3.1,49.676a1.911,1.911,0,0,1,.378.035,17.7,17.7,0,0,0,3.551.363h.131c-.1.779-.179,1.578-.247,2.376A20.139,20.139,0,0,1,3,52.039a1.532,1.532,0,0,0-.555.314c-.166.223.128.537.318.7.571.5,1.159,1,1.761,1.5l.023.019c.663.56,1.414,1.193,2.139,1.836-.023.729-.035,1.479-.038,2.293,0,.305,0,.609,0,.914ZM9.313,52.32h0c.075-.828.165-1.643.268-2.424,4.681-.65,8.972-2.964,13.121-5.2,8.028-4.329,15.61-9.7,22.942-14.884,2.382-1.687,5.079-3.6,7.706-5.4a231.371,231.371,0,0,1,30.3-17.519A44.578,44.578,0,0,1,90.522,4.28c1.079.5,2.14,1.04,3.154,1.612a45.81,45.81,0,0,0-8.988,3.133A228.874,228.874,0,0,0,54.7,26.363c-2.481,1.7-4.987,3.477-7.41,5.192l-.269.19-.042.03C39.6,37,31.97,42.4,23.838,46.782l-.005,0C19.546,49.1,14.687,51.716,9.314,52.32Z" transform="translate(18 4)"/>
  <path id="Fill_4" data-name="Fill 4" class="cls-3" d="M116.5,172h-.012c-.409,0-.78,0-1.2-.006a35.957,35.957,0,0,0,2.849-2.393c1.157-.021,2.314-.063,3.439-.127a35.053,35.053,0,0,1-2.534,2.493C118.257,171.989,117.4,172,116.5,172ZM41.7,160.857h0c-.956-.139-1.981-.256-3.133-.357-.567-.842-1.115-1.69-1.63-2.52,1.151.079,2.124.162,2.975.252.563.861,1.164,1.744,1.789,2.624ZM163.3,68.909h0c-.63-.618-1.287-1.226-1.95-1.806.226-.835.438-1.706.629-2.592.688.574,1.369,1.174,2.025,1.783-.205.855-.442,1.734-.7,2.615ZM2.413,59.69l0,0c-.6-.856-1.215-1.7-1.817-2.5A7.275,7.275,0,0,0,0,56.495c0-.308,0-.614,0-.922,0-.8.015-1.556.038-2.3l.027.026.015.014.017.015.023.02.2.179A16.767,16.767,0,0,1,2.369,55.6c0,1.4.012,2.772.044,4.086ZM.379,49.288H.263c.068-.793.151-1.6.246-2.387a18.4,18.4,0,0,0,2.41-.18c-.1.766-.19,1.585-.266,2.436A20.176,20.176,0,0,1,.379,49.288ZM86.508,2.538h0c-1-.569-2.051-1.113-3.134-1.619C84.482.59,85.651.282,86.848,0c1.024.555,2.035,1.156,3.005,1.786-1.183.239-2.277.485-3.345.751Z" transform="translate(24 7)"/>
  <path id="Fill_5" data-name="Fill 5" class="cls-4" d="M94.726,168a3.534,3.534,0,0,1-2.442-1.031,10.731,10.731,0,0,1-1.165-1.346,99.776,99.776,0,0,0-15.8-15.936c-11.4-9.5-23.7-19.586-37.606-30.82a163.483,163.483,0,0,1-18.963-17.9,50.97,50.97,0,0,1-7.886-10.979L10.2,88.678l-.04-.079C8.25,84.861,6.278,81,4.537,77.088-.4,66.017-1.3,54.044,1.785,40.482a56.28,56.28,0,0,1,8.676-19.689,26.152,26.152,0,0,1,6.021-6.44A60.906,60.906,0,0,1,31.355,5.874a41.977,41.977,0,0,1,14.666-2.56A53.3,53.3,0,0,1,56.839,4.474c12.2,2.5,22.456,8.931,31.348,19.655.606.731,1.237,1.489,1.987,2.386l.358.431A15.642,15.642,0,0,0,91.95,25.21c3.423-5.161,7.817-9.882,14.248-15.31A42.762,42.762,0,0,1,128.251.335,31.173,31.173,0,0,1,132.772,0a34.612,34.612,0,0,1,13.015,2.706,55.481,55.481,0,0,1,27.878,24.436,41.413,41.413,0,0,1,4.645,12.776,87.612,87.612,0,0,1,.9,28.905l-.142,1.081a82.129,82.129,0,0,1-3.139,15.764,48.09,48.09,0,0,1-8.013,14.692c-5.794,7.322-13.077,13.9-22.921,20.707l-1.354.935-.019.013c-8.628,5.96-17.55,12.123-25.361,19.427a136.578,136.578,0,0,0-16.35,18.4,19.333,19.333,0,0,0-1.574,2.686l0,.006-.012.024c-.383.739-.779,1.5-1.244,2.234a9.289,9.289,0,0,1-2.411,2.57A3.381,3.381,0,0,1,94.726,168ZM46.021,5.709A39.661,39.661,0,0,0,32.167,8.124,58.813,58.813,0,0,0,17.879,16.29a23.9,23.9,0,0,0-5.469,5.872A53.166,53.166,0,0,0,4.1,41.016c-2.962,13.034-2.11,24.513,2.6,35.091,1.736,3.9,3.7,7.75,5.606,11.474l.669,1.309a48.656,48.656,0,0,0,7.534,10.469A161.33,161.33,0,0,0,39.2,117c13.913,11.237,26.224,21.326,37.636,30.842A102.059,102.059,0,0,1,93,164.165a8.817,8.817,0,0,0,.905,1.056,1.3,1.3,0,0,0,.843.362.963.963,0,0,0,.56-.182,6.819,6.819,0,0,0,1.765-1.9c.406-.638.76-1.319,1.134-2.041l.016-.032a21.53,21.53,0,0,1,1.782-3.02,139.19,139.19,0,0,1,16.635-18.724c7.941-7.424,16.939-13.64,25.641-19.651l.011-.008,1.353-.934c9.644-6.668,16.764-13.094,22.408-20.225A45.763,45.763,0,0,0,173.679,84.9c1.676-4.966,2.335-9.989,3.032-15.307l.142-1.084a85.251,85.251,0,0,0-.873-28.113,39.14,39.14,0,0,0-4.37-12.048,53.161,53.161,0,0,0-26.7-23.415,32.309,32.309,0,0,0-12.142-2.536A28.77,28.77,0,0,0,128.6,2.7a40.456,40.456,0,0,0-20.869,9.033c-6.251,5.274-10.507,9.839-13.8,14.8a17.733,17.733,0,0,1-1.656,2.042c-.258.286-.557.621-.855.974L90.5,30.633l-2.15-2.577c-.746-.894-1.371-1.643-1.992-2.392-8.533-10.292-18.345-16.457-30-18.845A51.024,51.024,0,0,0,46.021,5.709Z" transform="translate(0 24)"/>
  <path id="Fill_6" data-name="Fill 6" d="M0,24H137V0H0Z" transform="translate(24 138)"/>
  <path id="Fill_7" data-name="Fill 7" d="M19.1,84.427c-5.147.793-9.723,1.5-15.353,2.368C2.268,83.154,0,80.151,0,77.154c.046-19.989.552-39.975.963-59.96C1.127,8.941,6.178,4.992,14.3,2.967c2.516,2.26,5.453,4.9,8.121,7.3C30.878,7.16,38.933,3.574,47.333,1.223c18.948-5.3,36.2,7.156,36.591,27.036.373,19.226-.73,38.473-1.2,58.539-6.957,1.759-13.39,3.384-20.573,5.2-3.6-7.852-2.8-15.369-2.789-22.7.018-11.036.312-22.075.5-33.113.131-7.671-2.8-13.685-10.175-16.216-8.739-3-17.728-3.622-24.976,3.451C22.606,25.48,21.69,29.5,21.5,32.709c-.993,16.466-1.569,32.95-2.4,51.718" transform="translate(75 41)"/>
  <path id="Fill_8" data-name="Fill 8" d="M3.125,82.786C2.039,55.831,1.037,30.823,0,5.089,3.847,3.272,6.7,1.6,9.768.557c4.544-1.539,8.441.154,10.144,4.527A45.073,45.073,0,0,1,23.287,19.15C24.157,39.386,24.55,59.646,25,79.9c.024,1.195-.985,2.409-1.725,4.1-5.812-.351-11.813-.709-20.149-1.214" transform="translate(27 45)"/>
  <path id="Fill_9" data-name="Fill 9" d="M14.861,23.729c-8.042.816-11.711-.081-13.73-4.49C-.6,15.464.1,11.388.347,8.565,1.131-.118,10.125-.118,16.891.033a9.492,9.492,0,0,1,7.138,2.912c6.345,7.991,1.938,19.362-7.637,20.615-1.389.175-2.779.3-1.53.169" transform="translate(27 11)"/>
  <path id="Fill_10" data-name="Fill 10" class="cls-5" d="M5.847,14a20.94,20.94,0,0,1-3.593-.372,3.018,3.018,0,0,1-1.423-.968,4.192,4.192,0,0,1-.623-.965C.137,11.558.07,11.428,0,11.311A2.19,2.19,0,0,1,1.88,9.982a1.021,1.021,0,0,1,.211-.023,1.407,1.407,0,0,1,1.065.642l.155.192.005.006a9.065,9.065,0,0,0,1.352,1.45,1.2,1.2,0,0,0,.743.281,1.292,1.292,0,0,0,1.118-.809,3.388,3.388,0,0,0-.9-3.9A11.772,11.772,0,0,0,3.573,6.483c-.154-.086-.308-.172-.46-.258a3,3,0,0,1-1.8-3.044A3.2,3.2,0,0,1,1.9,1.591,3.787,3.787,0,0,1,4.9.007C5.116,0,5.351,0,5.586,0A11.4,11.4,0,0,1,7.381.118a3.159,3.159,0,0,1,2.852,2.35l-.015,0a6.632,6.632,0,0,1-1.477.258c-.683,0-1.306-.3-2.973-1.1C4.853,2.7,4.753,3.468,5.435,4.212A5.469,5.469,0,0,0,6.81,5.276,6.1,6.1,0,0,1,10.12,9.767a1.294,1.294,0,0,0,.23.465c.062.1.132.2.2.33.151-.087.3-.175.444-.26.349-.205.674-.4,1.014-.574a14.232,14.232,0,0,1,1.58-.742,11.151,11.151,0,0,1,1.175-.343c.158-.04.321-.081.481-.125-.229-1.407-.84-2.058-1.982-2.11-.079,0-.161-.005-.245-.005-.354,0-.71.03-1.087.061-.215.018-.437.037-.666.05a1.953,1.953,0,0,1,1.625-1.228A12.288,12.288,0,0,1,14.6,5.03L14.863,5a4.363,4.363,0,0,1,.452-.024,3.511,3.511,0,0,1,3.6,3.183,18.986,18.986,0,0,1-.03,3.709l-.024.323a1.113,1.113,0,0,1-1.236,1.063c-.065,0-.132,0-.2-.01a2.793,2.793,0,0,1-.948-.25,1.453,1.453,0,0,0-.629-.177.864.864,0,0,0-.529.186,2.613,2.613,0,0,1-1.573.4c-.106,0-.215.008-.324.015l-.213.013c-.416.025-.744.045-1.012.045-.809,0-1.14-.186-2.278-.9-.2.127-.4.284-.593.435a3.575,3.575,0,0,1-1.4.8A10.992,10.992,0,0,1,5.847,14ZM15.6,10.209h0a1.662,1.662,0,0,0-1.695,1.048,1.028,1.028,0,0,0,.167.9,1.046,1.046,0,0,0,1.742-.543,3.224,3.224,0,0,0-.122-.965C15.662,10.5,15.628,10.355,15.6,10.209Z" transform="translate(74 142)"/>
  <path id="Fill_11" data-name="Fill 11" class="cls-5" d="M2.559,14a5.336,5.336,0,0,1-1.52-.23c-.15-.046-.3-.087-.54-.156L0,13.473l.074-2.079C.183,8.324.286,5.427.4,2.48a6.346,6.346,0,0,1,.222-1.3A1.368,1.368,0,0,1,1.864.059,9.086,9.086,0,0,1,2.8,0a4.327,4.327,0,0,1,.551.033A6.041,6.041,0,0,1,6.806,1.921,7,7,0,0,1,8.718,5.556c.007.038.01.077.014.115a1.158,1.158,0,0,0,.021.148c.574,2.577.134,4.425-1.384,5.817A7.331,7.331,0,0,1,2.559,14ZM2.12,1.462a49.675,49.675,0,0,1-.652,10.863A5.841,5.841,0,0,0,5.144,9.93a2.619,2.619,0,0,0,.532-1.171A8.332,8.332,0,0,0,4.5,2.929,3.275,3.275,0,0,0,2.12,1.462Z" transform="translate(120 143)"/>
  <path id="Fill_12" data-name="Fill 12" class="cls-5" d="M1.4,5.6C.758,3.675.529,1.916,2.307.763a3.791,3.791,0,0,1,4.562,0c-.283.641-.819.566-1.292.673-1.284.291-1.945.917-2.013,1.839A2.109,2.109,0,0,0,5.281,5.432C7.436,6,8.357,7.549,8.871,9.456a3.505,3.505,0,0,1-3.1,4.439,9,9,0,0,1-3.943-.238,2.713,2.713,0,0,1-1.71-1.332A1.058,1.058,0,0,1,.414,11a1.362,1.362,0,0,1,2.142.132A3.776,3.776,0,0,0,4.563,12.5a1.051,1.051,0,0,0,1.274-.489A2.558,2.558,0,0,0,6.211,9.89c-.565-1.606-1.36-3-3.168-3.531A11.079,11.079,0,0,1,1.4,5.6" transform="translate(27 142)"/>
  <path id="Fill_13" data-name="Fill 13" class="cls-5" d="M7.037,8H7.03l-.405-.008a30.049,30.049,0,0,1-4.414-.306A2.388,2.388,0,0,1,.3,5.586C.263,5.359.22,5.129.178,4.907.126,4.63.073,4.345.031,4.063A2.71,2.71,0,0,1,.642,1.908,5.283,5.283,0,0,1,4.764,0,4.962,4.962,0,0,1,8.293,1.385c.455.448.878.937.638,1.552A1.754,1.754,0,0,1,7.457,4.125c-.186.015-.389.023-.619.023s-.467-.007-.695-.015c-.207-.007-.421-.013-.63-.014l-.727,0H3.72a1.39,1.39,0,0,0-.334,1.055,1.013,1.013,0,0,0,.453.666,7.608,7.608,0,0,0,2.19.985A2.252,2.252,0,0,0,6.65,6.9c.174,0,.355-.012.529-.023s.355-.023.53-.023l.034.092c.053.144.107.289.161.432a3.251,3.251,0,0,0-.276.246C7.434,7.807,7.232,8,7.037,8ZM4.46,1.386h0a1.829,1.829,0,0,0-.335.032c-.176.033-.322.243-.542.559-.127.183-.272.39-.461.622l.078.009a12.971,12.971,0,0,0,1.444.119,3.129,3.129,0,0,0,1.428-.308A1.952,1.952,0,0,0,4.46,1.387Z" transform="translate(35 149)"/>
  <path id="Fill_14" data-name="Fill 14" class="cls-5" d="M3.947,8A3.913,3.913,0,0,1,.783,6.643,4.351,4.351,0,0,1,.159,2.885,1.484,1.484,0,0,1,.5,2.208,6.455,6.455,0,0,1,5.247,0,6.535,6.535,0,0,1,6,.044,3.313,3.313,0,0,1,8.215,1.208,2.563,2.563,0,0,1,8.87,3.826l-.7.1c-1.338.186-2.722.378-4.082.586a.593.593,0,0,0-.276.2c-.051.05-.11.108-.176.162.337,1.373,1.451,1.665,2.63,1.974.375.1.763.2,1.137.339-.154.106-.276.2-.374.277a1.011,1.011,0,0,1-.4.238l-.293.046-.011,0A17.421,17.421,0,0,1,4.1,8ZM4.83,1.577c-.6,0-.879.431-.886,1.355H5.827a1.454,1.454,0,0,0-.281-1.067.909.909,0,0,0-.658-.287Z" transform="translate(60 149)"/>
  <path id="Fill_15" data-name="Fill 15" class="cls-5" d="M6.932,6.585,4.337,7c-.137-.877-.235-1.7-.4-2.52A7.826,7.826,0,0,0,3.4,2.731c-.331-.691-.942-.757-1.68-.389C1.107,3.77,2.039,5.606.438,6.974.276,6.737.005,6.524,0,6.309c-.011-1.764.018-3.529.06-5.3A1.741,1.741,0,0,1,.318.38C.552-.1,1.026-.131,1.441.313a5.911,5.911,0,0,1,.452.643A11.1,11.1,0,0,0,3.752.6,2.188,2.188,0,0,1,6.469,1.927a10.881,10.881,0,0,1,.462,4.658" transform="translate(99 147)"/>
  <path id="Fill_16" data-name="Fill 16" class="cls-5" d="M.017,5.632C1.444,4.4,2.4,5.669,3.448,6.149c.7-1.432.558-1.847-.676-2.185-.584-.16-1.2-.243-1.765-.437A1.365,1.365,0,0,1,.249,1.417,3.26,3.26,0,0,1,2.828.013,8.124,8.124,0,0,1,5.362.391,1.424,1.424,0,0,1,6.516,1.668l-3.057.393c.483.868,1.388.771,2.054,1.022,1.655.626,2,2.018.679,3.1a2.421,2.421,0,0,1-1.107.587,20.832,20.832,0,0,1-3.367.221,1.589,1.589,0,0,1-1.7-1.36" transform="translate(150 147)"/>
  <path id="Fill_17" data-name="Fill 17" class="cls-5" d="M2.615,7A2.676,2.676,0,0,1,.322,5.119,6.769,6.769,0,0,1,0,3.039a2.183,2.183,0,0,1,.513-1.4A5.372,5.372,0,0,1,4.139,0,4.378,4.378,0,0,1,5.463.212a2.519,2.519,0,0,1,1.14.835A1.555,1.555,0,0,1,6.927,2.53a1.385,1.385,0,0,1-1.05.859l-.442.1a11.292,11.292,0,0,0-2.25.654c.345,1.334,1.075,1.445,1.793,1.445.117,0,.237,0,.354-.007h.005c.115,0,.232-.007.347-.007a2.376,2.376,0,0,1,.947.154,1.533,1.533,0,0,1-1.62,1.232l-.1,0c-.135-.006-.269-.013-.4-.02-.251-.014-.511-.028-.768-.028a4.8,4.8,0,0,0-.865.07A1.474,1.474,0,0,1,2.615,7Zm.893-5.652h0a.423.423,0,0,0-.409.392.9.9,0,0,0,.4.707.392.392,0,0,0,.15.027,1.683,1.683,0,0,0,.434-.091c.12-.035.255-.075.406-.106-.108-.13-.2-.251-.278-.357a2.166,2.166,0,0,0-.425-.474.483.483,0,0,0-.282-.1Z" transform="translate(129 149)"/>
  <path id="Fill_18" data-name="Fill 18" class="cls-5" d="M2.017.912A19.91,19.91,0,0,1,4.276.693,2.169,2.169,0,0,1,6.635,2.6,12.045,12.045,0,0,1,6.94,6.759a4.745,4.745,0,0,1-2.723.08c-.948-1.443.159-3.155-.841-4.52-1.562-.18-1.748-.1-1.78,1.068A4.382,4.382,0,0,1,.884,6.266a4.519,4.519,0,0,1-.726.527C.015,4.364-.261,2.12.6.046,1.643-.2,1.479.578,2.017.912" transform="translate(53 149)"/>
  <path id="Fill_19" data-name="Fill 19" class="cls-5" d="M1.846,0V2.928C2.757,4,4.151,3.116,5,4.279l-2.711.448a6.9,6.9,0,0,0,.429,5.03c.1.213.274.393.358.611A1.265,1.265,0,0,1,2.525,11.8a.924.924,0,0,1-1.269-.127,4.029,4.029,0,0,1-.783-1.152A4.907,4.907,0,0,1,.2,9.367C-.347,6.474.344,3.67.818.857a2.434,2.434,0,0,1,.452-.8C1.3.014,1.415.037,1.846,0" transform="translate(104 143)"/>
  <path id="Fill_20" data-name="Fill 20" class="cls-5" d="M.415,0c.806.634,1.458,1.074,2.292.718A3.8,3.8,0,0,1,4.124.441,2.91,2.91,0,0,1,6.955,3.183c.091.974.017,1.967.017,3.1L4.834,7c-.92-.552-.75-1.494-.972-2.221-.207-.678-.24-1.425-.472-2.087A1.016,1.016,0,0,0,2.2,2.008a1.046,1.046,0,0,0-.956,1.024c-.046.537.032,1.089-.033,1.622C1.127,5.346.962,6.026.792,6.926-.144,5.125-.225,3.512.415,0" transform="translate(137 149)"/>
  <path id="Fill_21" data-name="Fill 21" class="cls-5" d="M3.3,7c-.99-.1-1.912-.189-2.976-.3a10.9,10.9,0,0,1-.317-1.7c-.035-1.065.017-2.13.044-3.2A1.743,1.743,0,0,1,1.443.131c1.063-.348,1.9,0,2.152.98A8.249,8.249,0,0,1,3.3,7" transform="translate(47 149)"/>
  <path id="Fill_22" data-name="Fill 22" class="cls-5" d="M1.865,0c1.008,2.381,2.006,4.637-.135,7-.351-.113-.92-.2-.942-.32C.471,4.884.164,3.085,0,1.283-.041.759.357.21,1.865,0" transform="translate(95 149)"/>
  <path id="Fill_23" data-name="Fill 23" class="cls-5" d="M2.207,0c.467,2.487,1.785,4.738-.556,7-.324-.146-.817-.247-.875-.408C.061,4.642-.553,2.679.816.742.991.5,1.54.345,2.207,0" transform="translate(146 149)"/>
  <path id="Fill_24" data-name="Fill 24" class="cls-5" d="M0,1.811C.4.389,1.649.149,3.165,0a6.221,6.221,0,0,1,.782,1.454c.247,1.071-.388,1.659-1.5,1.528A2.986,2.986,0,0,1,0,1.811" transform="translate(93 143)"/>
  <path id="Fill_25" data-name="Fill 25" class="cls-5" d="M2.832,3H.2A2.1,2.1,0,0,1,.455.765,2.9,2.9,0,0,1,1.81.01C2-.051,2.31.183,2.47.4A2.731,2.731,0,0,1,2.832,3" transform="translate(145 143)"/>
  <path id="Fill_26" data-name="Fill 26" class="cls-5" d="M5,.83A19.947,19.947,0,0,1,0,.837C.843.138.841.107,1.822.093S3.886-.37,5,.83" transform="translate(112 151)"/>
  <path id="Fill_27" data-name="Fill 27" class="cls-5" d="M3,3C1.922,2.85,1.049,2.732.03,2.593A5.558,5.558,0,0,1,.046,1.326,1.75,1.75,0,0,1,1.6.012,1.511,1.511,0,0,1,2.536.27c.3.171.389.8.464,2.73" transform="translate(47 143)"/>
</svg>
