<svg id="logo" xmlns="http://www.w3.org/2000/svg" xmlns:xlink="http://www.w3.org/1999/xlink" viewBox="0 0 125 114">
  <defs>
    <style>
      .cls-1 {
        fill: none;
      }

      .cls-2 {
        fill: #005baa;
      }

      .cls-3 {
        fill: #ffec00;
      }

      .cls-4 {
        fill: #e5007d;
      }

      .cls-5 {
        clip-path: url(#clip-path);
      }

      .cls-6 {
        fill: #fefefe;
      }

      .cls-7 {
        fill: #1d1d1b;
      }
    </style>
    <clipPath id="clip-path">
      <path id="Clip_8" data-name="Clip 8" class="cls-1" d="M0,114H123V0H0Z"/>
    </clipPath>
  </defs>
  <path id="Fill_1" data-name="Fill 1" class="cls-2" d="M70.07,106h-.013a75.506,75.506,0,0,1-13.4-1.309c-10.872-1.946-21.83-3.735-31.117-5.228a52.281,52.281,0,0,0-5.439-.481h-.018c-.595-.029-1.3-.066-2.021-.116-.14-.01-.279-.015-.415-.015a4.421,4.421,0,0,0-2.909,1,3.5,3.5,0,0,1-2.169,1.009,2.393,2.393,0,0,1-1.176-.324l-.22-.125-.094-.235a.91.91,0,0,0-.042-.094l-.021-.042a1.314,1.314,0,0,1-.2-.806c.754-5.738-.34-11.465-1.4-17l0-.009-.271-1.418A94.307,94.307,0,0,0,5.439,67.963l-.032-.094c-.388-1.133-.789-2.3-1.179-3.488A86.55,86.55,0,0,1,0,36.988,32.279,32.279,0,0,1,2.809,22.934,54.114,54.114,0,0,1,7.578,14.7,32.32,32.32,0,0,1,14.63,7.387c.477-.349.972-.7,1.451-1.03.624-.436,1.268-.886,1.877-1.346.406-.306.867-.606,1.314-.9.358-.233.727-.472,1.065-.714A17.493,17.493,0,0,1,28.416.343,48.429,48.429,0,0,1,34.126,0,44.593,44.593,0,0,1,45.913,1.566,27.488,27.488,0,0,1,57.976,8.2c.61.583,1.225,1.149,1.8,1.679l0,0c1.234,1.135,2.509,2.308,3.669,3.564A14.192,14.192,0,0,1,65.9,17.769l.008.02.1.235.011.026c.113.27.23.548.35.817A26.705,26.705,0,0,1,68.76,31.706c-.094,1.484-.119,2.937-.145,4.476v.072c-.007.393-.014.791-.022,1.19.2-.047.408-.092.611-.137l.268-.059.238-.053c1.262-.283,2.455-.55,3.671-.8l.4-.083a15.206,15.206,0,0,1,2.846-.4c.28-.006.579-.009.887-.009a40.5,40.5,0,0,1,12.432,1.786,22.413,22.413,0,0,1,6.934,4.167,39.048,39.048,0,0,1,8.6,9.844c3.022,4.638,4.5,10.141,4.524,16.824a57.936,57.936,0,0,1-.255,6.023,29.439,29.439,0,0,1-7.986,17.485,44.542,44.542,0,0,1-11.085,9.085,39.713,39.713,0,0,1-14.959,4.6A54.816,54.816,0,0,1,70.07,106ZM17.645,97.439c.176,0,.346.006.518.017.479.032.964.059,1.434.085l.565.031a52.983,52.983,0,0,1,5.611.5c9.765,1.569,20.3,3.29,31.142,5.233a74.508,74.508,0,0,0,13.155,1.283,54,54,0,0,0,5.5-.275,38.242,38.242,0,0,0,14.423-4.438,43.226,43.226,0,0,0,10.727-8.8A28.025,28.025,0,0,0,108.324,74.4a54.964,54.964,0,0,0,.252-5.872c-.023-6.4-1.428-11.659-4.295-16.064A37.929,37.929,0,0,0,96,42.967l-.021-.016a21.384,21.384,0,0,0-6.471-3.912,39.058,39.058,0,0,0-12-1.72c-.322,0-.592,0-.866.007a13.912,13.912,0,0,0-2.559.37l-.016,0-.407.085c-1.3.262-2.611.557-3.881.843l-.825.184-.946.211-.89.2.022-.9c.023-.732.035-1.469.046-2.156l0-.18c.027-1.5.052-2.915.146-4.361a25.356,25.356,0,0,0-2.277-12.179c-.178-.4-.345-.8-.471-1.105A12.977,12.977,0,0,0,62.4,14.408c-1.125-1.222-2.379-2.373-3.591-3.486l-.2-.185c-.535-.493-1.088-1-1.624-1.516A26.056,26.056,0,0,0,45.532,2.93,43.18,43.18,0,0,0,34.12,1.413a46.863,46.863,0,0,0-5.535.333,16.079,16.079,0,0,0-7.416,2.8c-.329.235-.69.47-1.039.7-.445.289-.9.587-1.306.892-.517.391-1.066.769-1.6,1.135-.6.412-1.216.839-1.8,1.292C10.975,12,7.271,16.894,4.1,23.54A30.875,30.875,0,0,0,1.427,36.991,85.164,85.164,0,0,0,5.58,63.939c.393,1.193.8,2.37,1.175,3.474a95.816,95.816,0,0,1,3.8,13.137l.271,1.411.005.028C11.9,87.6,13.009,93.4,12.249,99.327l.012.023.025.045a.816.816,0,0,0,.281.051,2.3,2.3,0,0,0,1.27-.684A5.873,5.873,0,0,1,17.645,97.439Z" transform="translate(15)"/>
  <path id="Fill_3" data-name="Fill 3" class="cls-3" d="M54.364,112c-.772,0-1.541-.026-2.288-.078l-1.157-.071-.136-.009c-1.418-.091-2.885-.185-4.328-.347a21.017,21.017,0,0,1-12.349-5.7,49.341,49.341,0,0,1-11.112-15.3c-2.8-6-4.168-12.43-5.494-18.651l-.006-.027-.081-.373c-.281-1.321-.557-2.662-.824-3.959l-.045-.219C15.71,63.2,14.848,59,13.73,54.957A56.944,56.944,0,0,0,4.269,35.936a8.4,8.4,0,0,0-1.1-1.12l-.118-.106c-.365-.328-.743-.653-1.109-.967l-.184-.158-.009-.008c-.346-.294-.7-.6-1.047-.905a1.678,1.678,0,0,1-.389-2.328,2.044,2.044,0,0,1,1.513-.749,1.14,1.14,0,0,1,.22.02,10.2,10.2,0,0,0,2.1.217c3.361,0,6.352-1.63,9.245-3.206a134.023,134.023,0,0,0,13.523-8.867l.327-.233c1.378-.984,2.8-2,4.218-2.984A136.291,136.291,0,0,1,49.318,4.1c3.867-1.887,8.14-2.572,11.909-3.176a74.242,74.242,0,0,1,7.8-.9C69.409.009,69.72,0,70,0c3.991,0,7.938,1.234,12.419,3.883A48.677,48.677,0,0,1,95.142,14.727a17.922,17.922,0,0,1,2.585,4.492l.023.051c.408.9.6,1.305.955,2.034l.313.648a28.587,28.587,0,0,1,.924,23.4A25.23,25.23,0,0,1,94.4,54.287c-.484.489-.964,1-1.429,1.486l-.149.157c-2.2,2.325-4.47,4.728-7.583,6.152a3.951,3.951,0,0,0-.706.474l-.151.113c-.108.081-.219.164-.331.239l-.094.061a10.5,10.5,0,0,1-5.053,2.161l.152.283c.162.3.3.561.439.819A35.508,35.508,0,0,1,83.622,81.55,28.859,28.859,0,0,1,82.253,90.4a36.341,36.341,0,0,1-2.265,5.66l-.015.032-.083.178c-.222.476-.452.969-.67,1.454-1.736,3.867-4.777,6.992-9.3,9.553-.219.126-.442.248-.658.367l-.191.1-.12.065c-.4.216-.806.439-1.2.675A25.415,25.415,0,0,1,54.364,112ZM1.766,31a.869.869,0,0,0-.327.187c-.1.133.076.32.188.419.344.3.688.6,1.04.9l.067.057c.413.354.841.72,1.253,1.09l.12.108a9.449,9.449,0,0,1,1.285,1.321,58.382,58.382,0,0,1,9.691,19.494c1.139,4.122,2,8.331,2.837,12.4l.1.485c.248,1.206.5,2.452.767,3.679l.081.373c1.308,6.149,2.661,12.506,5.4,18.376a48.017,48.017,0,0,0,10.8,14.869,19.651,19.651,0,0,0,11.545,5.328c1.348.153,2.737.242,4.08.329l.317.02,1.162.074c.75.049,1.495.074,2.214.074a24.007,24.007,0,0,0,12.658-3.311c.42-.25.853-.488,1.272-.718l.089-.049.27-.149c.185-.1.376-.207.563-.314,4.309-2.44,7.075-5.269,8.706-8.9.238-.531.486-1.061.761-1.649a35.375,35.375,0,0,0,2.2-5.467,27.276,27.276,0,0,0,1.319-8.417A34.134,34.134,0,0,0,78.26,66.9l-.285-.532-.008-.016-.024-.045-.363-.678-1.038-1.922,1.229.042c.085,0,.171,0,.255,0a8.63,8.63,0,0,0,5.154-1.964l.094-.062c.124-.08.246-.174.365-.266l.043-.033a5.094,5.094,0,0,1,.977-.635c2.863-1.31,4.944-3.511,7.148-5.84.538-.57,1.064-1.127,1.6-1.668a23.756,23.756,0,0,0,5.226-8.444A27.692,27.692,0,0,0,100.4,31.379a23.639,23.639,0,0,0-2.612-8.742c-.08-.145-.161-.288-.24-.427a12.041,12.041,0,0,1-1.131-2.486,11.237,11.237,0,0,0-2.354-4.089A47.291,47.291,0,0,0,81.711,5.1C77.456,2.589,73.736,1.418,70,1.418c-.319,0-.615.008-.9.024a73.5,73.5,0,0,0-7.649.884l-.02,0c-3.668.589-7.825,1.256-11.5,3.051A134.122,134.122,0,0,0,32.251,15.708c-1.462,1.016-2.915,2.053-4.525,3.206l-.066.047a134.981,134.981,0,0,1-13.6,8.911c-2.9,1.583-6.2,3.378-9.913,3.378A11.681,11.681,0,0,1,1.766,31Z" transform="translate(11 2)"/>
  <path id="Fill_5" data-name="Fill 5" class="cls-4" d="M56.835,99a2.144,2.144,0,0,1-1.463-.609,6.278,6.278,0,0,1-.7-.792,59.211,59.211,0,0,0-9.482-9.391c-6.762-5.541-14.143-11.482-22.562-18.161A97.5,97.5,0,0,1,11.249,59.5a30.137,30.137,0,0,1-4.732-6.471l-.4-.77-.054-.1c-1.136-2.184-2.31-4.441-3.345-6.724C-.237,38.9-.776,31.849,1.07,23.855a32.89,32.89,0,0,1,5.207-11.6A15.471,15.471,0,0,1,9.888,8.459a36.783,36.783,0,0,1,8.923-5,25.637,25.637,0,0,1,8.8-1.508,32.617,32.617,0,0,1,6.493.683C41.427,4.112,47.579,7.9,52.913,14.219l.664.783.024.028.04.048.463.546.216.254.072-.079a8.5,8.5,0,0,0,.777-.943,42.83,42.83,0,0,1,8.55-9.022A25.9,25.9,0,0,1,76.952.2,19.1,19.1,0,0,1,79.665,0a21.028,21.028,0,0,1,7.806,1.6,33.1,33.1,0,0,1,16.731,14.4,24.22,24.22,0,0,1,2.786,7.53,50.84,50.84,0,0,1,.539,17.033l-.085.636a47.64,47.64,0,0,1-1.885,9.289,28.2,28.2,0,0,1-4.806,8.658A61.3,61.3,0,0,1,87,71.342l-.814.553A130.534,130.534,0,0,0,70.958,83.35,80.821,80.821,0,0,0,61.149,94.2a11.141,11.141,0,0,0-.946,1.586c-.233.439-.474.894-.754,1.33A5.534,5.534,0,0,1,58,98.627,2.056,2.056,0,0,1,56.835,99ZM27.613,3.363A24.2,24.2,0,0,0,19.3,4.786,35.476,35.476,0,0,0,10.727,9.6a14.128,14.128,0,0,0-3.282,3.46A31.056,31.056,0,0,0,2.462,24.17C.685,31.852,1.2,38.617,4.024,44.85,5.08,47.176,6.3,49.531,7.385,51.61l.4.772a28.678,28.678,0,0,0,4.52,6.168A95.832,95.832,0,0,0,23.52,68.944C31.8,75.509,39.182,81.454,46.1,87.121a60.7,60.7,0,0,1,9.7,9.616,5.156,5.156,0,0,0,.541.624.783.783,0,0,0,.508.213.59.59,0,0,0,.335-.106,4.061,4.061,0,0,0,1.057-1.12c.239-.368.445-.754.689-1.219a12.748,12.748,0,0,1,1.072-1.782,82.309,82.309,0,0,1,9.981-11.032A131.748,131.748,0,0,1,85.379,70.73l.811-.551A59.938,59.938,0,0,0,99.636,58.261a26.909,26.909,0,0,0,4.573-8.23,46.092,46.092,0,0,0,1.82-9.022l.084-.637a49.366,49.366,0,0,0-.522-16.569,22.734,22.734,0,0,0-2.624-7.1,31.734,31.734,0,0,0-16.019-13.8,19.667,19.667,0,0,0-7.283-1.495,17.551,17.551,0,0,0-2.506.183A24.492,24.492,0,0,0,64.636,6.916a41.478,41.478,0,0,0-8.279,8.723,10.741,10.741,0,0,1-.994,1.2l-.156.173c-.116.128-.236.261-.358.4l-.545.638-1.292-1.522c-.411-.484-.8-.942-1.193-1.409-5.122-6.065-11.01-9.7-18-11.1A31.153,31.153,0,0,0,27.613,3.363Z" transform="translate(0 15)"/>
  <path id="Clip_8-2" data-name="Clip 8" class="cls-1" d="M0,114H123V0H0Z"/>
  <g id="logo-2" data-name="logo" class="cls-5">
    <path id="Fill_7" data-name="Fill 7" class="cls-6" d="M0,13H81V0H0Z" transform="translate(13 80)"/>
    <path id="Fill_9" data-name="Fill 9" class="cls-6" d="M11.6,50.473l-9.32,1.418C1.379,49.712,0,47.917,0,46.126c.031-11.95.336-23.9.586-35.846.1-4.935,3.167-7.295,8.1-8.5C10.215,3.126,12,4.7,13.617,6.139,18.748,4.28,23.64,2.138,28.74.732c11.5-3.17,21.979,4.279,22.213,16.163.23,11.492-.442,23-.73,35C46,52.944,42.1,53.914,37.734,55c-2.183-4.692-1.7-9.187-1.694-13.572.013-6.6.192-13.2.307-19.8.077-4.585-1.7-8.181-6.18-9.693-5.306-1.8-10.76-2.165-15.161,2.064-1.279,1.23-1.836,3.636-1.952,5.553-.6,9.844-.955,19.7-1.456,30.917" transform="translate(44 25)"/>
    <path id="Fill_10" data-name="Fill 10" class="cls-6" d="M1.876,48.292C1.225,32.568.624,17.979,0,2.968A62.808,62.808,0,0,1,5.86.325c2.727-.9,5.067.089,6.09,2.64a25.776,25.776,0,0,1,2.025,8.205C14.5,22.976,14.732,34.792,15,46.606c.015.7-.589,1.405-1.034,2.394-3.488-.205-7.088-.414-12.089-.708" transform="translate(17 27)"/>
    <path id="Fill_11" data-name="Fill 11" class="cls-6" d="M8.258,14.831c-4.47.509-6.506-.052-7.63-2.807-.96-2.36-.57-4.908-.435-6.672C.628-.074,5.624-.074,9.384.021A4.988,4.988,0,0,1,13.348,1.84c3.526,5,1.079,12.1-4.243,12.885-.77.109-1.543.19-.847.106" transform="translate(17 6)"/>
    <path id="Fill_12" data-name="Fill 12" class="cls-7" d="M3.385,8a12.3,12.3,0,0,1-2.078-.212,1.738,1.738,0,0,1-.825-.556,2.39,2.39,0,0,1-.363-.554C.078,6.6.039,6.529,0,6.464A1.271,1.271,0,0,1,1.09,5.7a.593.593,0,0,1,.121-.013.814.814,0,0,1,.615.369l.1.123A5.1,5.1,0,0,0,2.7,7a.7.7,0,0,0,.429.161A.75.75,0,0,0,3.781,6.7,1.922,1.922,0,0,0,3.258,4.47a6.681,6.681,0,0,0-1.177-.76L1.8,3.556A1.71,1.71,0,0,1,.759,1.817,1.847,1.847,0,0,1,1.1.908,2.207,2.207,0,0,1,2.835,0c.133,0,.267,0,.4,0A6.57,6.57,0,0,1,4.272.068,1.827,1.827,0,0,1,5.923,1.409l-.015,0a3.949,3.949,0,0,1-.849.145A4.458,4.458,0,0,1,3.338.935c-.53.607-.588,1.047-.193,1.471a3.147,3.147,0,0,0,.8.61A3.479,3.479,0,0,1,5.857,5.58a.751.751,0,0,0,.135.268c.036.054.076.115.118.187l.25-.144c.2-.119.4-.23.594-.33a7.476,7.476,0,0,1,.914-.425,6.313,6.313,0,0,1,.672-.194c.1-.025.193-.048.287-.074-.134-.806-.489-1.177-1.149-1.2q-.072,0-.144,0c-.207,0-.415.017-.635.036-.121.01-.247.021-.377.028a1.141,1.141,0,0,1,.94-.7,7.6,7.6,0,0,1,.989-.144L8.6,2.86a2.574,2.574,0,0,1,.262-.014,2.024,2.024,0,0,1,2.089,1.819,10.469,10.469,0,0,1-.019,2.126l-.013.177a.639.639,0,0,1-.712.607c-.038,0-.078,0-.119-.006a1.581,1.581,0,0,1-.548-.142.858.858,0,0,0-.365-.1.51.51,0,0,0-.307.106,1.515,1.515,0,0,1-.908.228l-.188.009-.116.007c-.244.015-.436.026-.592.026-.47,0-.647-.1-1.321-.514-.115.073-.231.162-.344.248a2.117,2.117,0,0,1-.814.457A6.475,6.475,0,0,1,3.385,8ZM9.032,5.834h0a.963.963,0,0,0-.98.6.562.562,0,1,0,1.1.205,1.827,1.827,0,0,0-.071-.548C9.067,6.005,9.047,5.919,9.032,5.834Z" transform="translate(44 84)"/>
    <path id="Fill_13" data-name="Fill 13" class="cls-7" d="M1.708,8A4.1,4.1,0,0,1,.693,7.868L.467,7.812,0,7.7l0-.083C.1,5.348.18,3.391.269,1.418A3.2,3.2,0,0,1,.417.676.875.875,0,0,1,1.241.033C1.424.017,1.64,0,1.856,0A3.281,3.281,0,0,1,2.23.02,4.318,4.318,0,0,1,5.812,3.174c0,.02.006.04.008.061a.575.575,0,0,0,.015.091,2.872,2.872,0,0,1-.922,3.321A5.218,5.218,0,0,1,1.708,8ZM1.413.834A24.46,24.46,0,0,1,.98,7.042,4.008,4.008,0,0,0,3.431,5.674a1.467,1.467,0,0,0,.354-.668A4.21,4.21,0,0,0,3,1.674,2.24,2.24,0,0,0,1.413.834Z" transform="translate(72 84)"/>
    <path id="Fill_14" data-name="Fill 14" class="cls-7" d="M.93,3.2C.505,2.1.353,1.1,1.536.435a2.872,2.872,0,0,1,3.042,0c-.188.367-.545.321-.86.383-.857.167-1.3.524-1.343,1.052-.042.509.339,1.049,1.146,1.23A3.044,3.044,0,0,1,5.914,5.4c.388,1.234-.577,2.4-2.071,2.536a7,7,0,0,1-2.628-.135A1.787,1.787,0,0,1,.077,7.043a.549.549,0,0,1,.2-.756,1.006,1.006,0,0,1,1.429.077,2.534,2.534,0,0,0,1.335.78.75.75,0,0,0,.85-.279,1.288,1.288,0,0,0,.249-1.215A2.987,2.987,0,0,0,2.029,3.634,8.012,8.012,0,0,1,.93,3.2" transform="translate(17 84)"/>
    <path id="Fill_15" data-name="Fill 15" class="cls-7" d="M4.692,4h0L4.417,4a26.729,26.729,0,0,1-2.943-.152A1.39,1.39,0,0,1,.2,2.793C.175,2.68.146,2.565.118,2.454c-.035-.139-.07-.282-.1-.423A1.129,1.129,0,0,1,.428.953,4.084,4.084,0,0,1,3.176,0,3.962,3.962,0,0,1,5.528.692c.3.226.587.471.424.777a1.153,1.153,0,0,1-.983.594c-.124.008-.259.011-.413.011s-.319,0-.474-.008c-.133,0-.271-.006-.406-.007H2.481a.6.6,0,0,0-.228.506.512.512,0,0,0,.307.354,5.955,5.955,0,0,0,1.459.493,1.945,1.945,0,0,0,.414.038c.116,0,.237-.006.353-.012s.238-.012.355-.012c.026.052.051.1.076.155l0,.01.048.1a2.1,2.1,0,0,0-.184.122A.773.773,0,0,1,4.692,4ZM2.973.693A1.619,1.619,0,0,0,2.75.709c-.116.017-.212.12-.358.278-.082.088-.183.2-.31.314l.055,0c.381.033.681.059.959.059a2.686,2.686,0,0,0,.953-.154A1.4,1.4,0,0,0,2.973.693Z" transform="translate(21 87)"/>
    <path id="Fill_16" data-name="Fill 16" class="cls-7" d="M1.754,4A1.659,1.659,0,0,1,.415,3.41,2.326,2.326,0,0,1,.07,1.443.763.763,0,0,1,.221,1.1,2.742,2.742,0,0,1,2.331,0a2.589,2.589,0,0,1,.334.022A1.418,1.418,0,0,1,3.65.6a1.4,1.4,0,0,1,.292,1.309L3.385,2l-.02,0c-.508.08-1.033.162-1.548.251-.041.007-.08.05-.125.1-.023.026-.048.052-.076.078.149.689.645.836,1.17.991a4.964,4.964,0,0,1,.5.168c-.067.052-.12.1-.163.136a.432.432,0,0,1-.18.12l-.137.025A6.364,6.364,0,0,1,1.822,4ZM2.144.789c-.263,0-.388.216-.392.678h.836c.02-.415-.131-.662-.417-.678Z" transform="translate(36 87)"/>
    <path id="Fill_17" data-name="Fill 17" class="cls-7" d="M3.962,3.764,2.476,4c-.077-.5-.131-.974-.229-1.44a4.583,4.583,0,0,0-.3-1c-.189-.4-.54-.432-.961-.222-.35.817.181,1.865-.732,2.648C.158,3.85,0,3.73,0,3.606,0,2.6.011,1.589.036.579A.967.967,0,0,1,.181.217C.315-.056.587-.075.825.179a3.564,3.564,0,0,1,.256.367,6.474,6.474,0,0,0,1.062-.2A1.252,1.252,0,0,1,3.7,1.1a6.271,6.271,0,0,1,.264,2.663" transform="translate(59 87)"/>
    <path id="Fill_18" data-name="Fill 18" class="cls-7" d="M.01,3.218c.816-.707,1.363.022,1.961.3.4-.817.318-1.056-.387-1.247C1.253,2.173.9,2.127.577,2.016A.78.78,0,0,1,.142.809a1.855,1.855,0,0,1,1.474-.8A4.62,4.62,0,0,1,3.064.223a.812.812,0,0,1,.658.73l-1.744.224c.274.5.794.441,1.171.584.947.357,1.143,1.154.388,1.772a1.367,1.367,0,0,1-.632.336A12.118,12.118,0,0,1,.983,4,.909.909,0,0,1,.01,3.218" transform="translate(89 87)"/>
    <path id="Fill_19" data-name="Fill 19" class="cls-7" d="M1.494,4A1.533,1.533,0,0,1,.182,2.926,3.9,3.9,0,0,1,0,1.736,1.238,1.238,0,0,1,.293.94,3.068,3.068,0,0,1,2.364,0a2.5,2.5,0,0,1,.758.122A1.448,1.448,0,0,1,3.774.6a.892.892,0,0,1,.184.849.793.793,0,0,1-.6.492l-.218.046a6.348,6.348,0,0,0-1.322.382c.2.761.616.825,1.028.825.064,0,.128,0,.193,0h.01c.066,0,.131,0,.2,0a1.341,1.341,0,0,1,.541.089.871.871,0,0,1-.921.7h-.06L2.56,3.962c-.145-.008-.283-.015-.424-.015a2.725,2.725,0,0,0-.495.04A.84.84,0,0,1,1.494,4ZM2,.771A.243.243,0,0,0,1.769,1,.513.513,0,0,0,2,1.4a.214.214,0,0,0,.085.016.938.938,0,0,0,.243-.052c.07-.021.148-.044.236-.062-.061-.074-.112-.142-.157-.2A1.259,1.259,0,0,0,2.164.827.274.274,0,0,0,2,.771Z" transform="translate(76 87)"/>
    <path id="Fill_20" data-name="Fill 20" class="cls-7" d="M1.152.52A11.3,11.3,0,0,1,2.444.4,1.237,1.237,0,0,1,3.791,1.484a6.87,6.87,0,0,1,.174,2.378,2.7,2.7,0,0,1-1.556.045c-.54-.824.092-1.8-.479-2.583-.894-.1-1-.056-1.018.612A2.5,2.5,0,0,1,.5,3.58a2.448,2.448,0,0,1-.415.3A8.6,8.6,0,0,1,.344.026c.593-.138.5.3.808.494" transform="translate(32 87)"/>
    <path id="Fill_21" data-name="Fill 21" class="cls-7" d="M1.476,0V1.952c.731.713,1.846.125,2.524.9-.783.109-1.434.2-2.169.3A3.9,3.9,0,0,0,2.176,6.5c.078.143.218.262.283.409a.779.779,0,0,1-.439.957A.851.851,0,0,1,1,7.785a2.758,2.758,0,0,1-.627-.769,2.915,2.915,0,0,1-.214-.771C-.278,4.314.275,2.447.654.571A1.6,1.6,0,0,1,1.013.036c.024-.026.12-.011.462-.036" transform="translate(64 84)"/>
    <path id="Fill_22" data-name="Fill 22" class="cls-7" d="M.236,0C.7.363,1.07.615,1.547.411A2.2,2.2,0,0,1,2.356.252,1.669,1.669,0,0,1,3.974,1.82c.051.556.009,1.125.009,1.77-.428.146-.853.288-1.221.41-.529-.313-.429-.853-.557-1.268-.119-.387-.138-.815-.268-1.192a.58.58,0,0,0-.681-.392.6.6,0,0,0-.546.584c-.027.307.018.624-.019.928-.046.395-.142.783-.237,1.3C-.082,2.931-.128,2.008.236,0" transform="translate(83 87)"/>
    <path id="Fill_23" data-name="Fill 23" class="cls-7" d="M1.651,4C1.158,3.943.7,3.893.162,3.832a7.212,7.212,0,0,1-.156-.971c-.018-.607.008-1.216.022-1.825A.972.972,0,0,1,.721.075.733.733,0,0,1,1.8.634,5.339,5.339,0,0,1,1.651,4" transform="translate(28 87)"/>
    <path id="Fill_24" data-name="Fill 24" class="cls-7" d="M.62,0c.337,1.36.671,2.65-.043,4C.46,3.936.271,3.887.262,3.818.159,2.792.055,1.763,0,.733A.686.686,0,0,1,.62,0" transform="translate(57 87)"/>
    <path id="Fill_25" data-name="Fill 25" class="cls-7" d="M1.473,0C1.784,1.419,2.661,2.706,1.1,4,.883,3.916.553,3.859.521,3.766.041,2.65-.369,1.531.542.423A3.852,3.852,0,0,1,1.473,0" transform="translate(87 87)"/>
    <path id="Fill_26" data-name="Fill 26" class="cls-7" d="M0,1.21C.2.259.823.1,1.581,0a4.826,4.826,0,0,1,.393.969c.122.716-.2,1.108-.755,1.018A1.385,1.385,0,0,1,0,1.21" transform="translate(55 84)"/>
    <path id="Fill_27" data-name="Fill 27" class="cls-7" d="M1.889,2H.134A1.4,1.4,0,0,1,.3.512a1.911,1.911,0,0,1,.906-.5c.125-.044.333.116.438.26A1.824,1.824,0,0,1,1.889,2" transform="translate(87 84)"/>
    <path id="Fill_28" data-name="Fill 28" class="cls-7" d="M4,.83A12.806,12.806,0,0,1,0,.837C.676.136.676.108,1.457.092S3.109-.37,4,.83" transform="translate(66 89)"/>
    <path id="Fill_29" data-name="Fill 29" class="cls-7" d="M2,2C1.28,1.9.7,1.821.021,1.728A3.732,3.732,0,0,1,.03.882,1.164,1.164,0,0,1,1.065.008a1.007,1.007,0,0,1,.625.17C1.892.293,1.948.714,2,2" transform="translate(28 84)"/>
  </g>
</svg>
