<svg id="RECHERCHE" xmlns="http://www.w3.org/2000/svg" viewBox="0 0 46 30">
  <defs>
    <style>
      .cls-1 {
        fill: #fff;
        stroke: #9b9b9b;
        stroke-miterlimit: 10;
      }

      .cls-2 {
        fill: #9b9b9b;
      }

      .cls-3 {
        stroke: none;
      }

      .cls-4 {
        fill: none;
      }
    </style>
  </defs>
  <g id="Group_2" data-name="Group 2">
    <g id="Rectangle_18" data-name="Rectangle 18" class="cls-1">
      <rect class="cls-3" width="46" height="30" rx="15"/>
      <rect class="cls-4" x="0.5" y="0.5" width="45" height="29" rx="14.5"/>
    </g>
    <g id="Page_1" data-name="Page 1" transform="translate(14 6)">
      <path id="Fill_1" data-name="Fill 1" class="cls-2" d="M2.553,17.516h0A2.531,2.531,0,0,1,0,15.013l4.775-4.68a6.779,6.779,0,0,1-.946-3.451A6.961,6.961,0,0,1,10.851,0a6.96,6.96,0,0,1,7.021,6.881,6.96,6.96,0,0,1-7.021,6.88,7.123,7.123,0,0,1-3.523-.927L2.554,17.516ZM10.851,2.5A4.43,4.43,0,0,0,6.383,6.881a4.469,4.469,0,0,0,8.937,0A4.43,4.43,0,0,0,10.851,2.5Z" transform="translate(0 0.484)"/>
    </g>
  </g>
</svg>
