<svg id="picto" xmlns="http://www.w3.org/2000/svg" xmlns:xlink="http://www.w3.org/1999/xlink" viewBox="0 0 90.75 90.75">
  <defs>
    <style>
      .cls-1 {
        fill: none;
      }

      .cls-2 {
        clip-path: url(#clip-path);
      }
    </style>
    <clipPath id="clip-path">
      <path id="Clip_16" data-name="Clip 16" class="cls-1" d="M29.763,37H59.525V0H0V37Z" transform="translate(0)"/>
    </clipPath>
  </defs>
  <path id="Fill_1" data-name="Fill 1" d="M.562,0,2,.419,1.439,3,0,2.581Z" transform="translate(58 32)"/>
  <path id="Fill_2" data-name="Fill 2" d="M2.581,2,0,1.438.419,0,3,.562Z" transform="translate(67 47)"/>
  <path id="Fill_3" data-name="Fill 3" d="M1.438,3,0,2.581.562,0,2,.419Z" transform="translate(52 56)"/>
  <path id="Fill_4" data-name="Fill 4" d="M.419,0,3,.562,2.581,2,0,1.439Z" transform="translate(43 41)"/>
  <path id="Fill_5" data-name="Fill 5" d="M1.155,0,3,1.8,1.845,3,0,1.2Z" transform="translate(46 35)"/>
  <path id="Fill_6" data-name="Fill 6" d="M1.8,0,3,1.155,1.2,3,0,1.845Z" transform="translate(63 35)"/>
  <path id="Fill_7" data-name="Fill 7" d="M1.845,3,0,1.2,1.155,0,3,1.8Z" transform="translate(64 52)"/>
  <path id="Fill_8" data-name="Fill 8" d="M1.2,3,0,1.845,1.8,0,3,1.155Z" transform="translate(46 53)"/>
  <path id="Fill_9" data-name="Fill 9" d="M.474,2,0,.622,2.526,0,3,1.379Z" transform="translate(43 48)"/>
  <path id="Fill_10" data-name="Fill 10" d="M1.378,0,2,2.526.621,3,0,.474Z" transform="translate(52 32)"/>
  <g id="Group_24" data-name="Group 24" transform="translate(15 27)">
    <path id="Fill_11" data-name="Fill 11" d="M.014,4.367a.726.726,0,0,0,.732.508h.22L13.916,1.392a.745.745,0,0,0,.512-.871A.753.753,0,0,0,13.55.014L.6,3.5a.7.7,0,0,0-.585.871" transform="translate(40.403 13.698)"/>
    <path id="Fill_13" data-name="Fill 13" d="M.633,2.565,0,.4,1.406,0l.633,2.16Z" transform="translate(43.541 28.706)"/>
    <g id="Group_17" data-name="Group 17">
      <path id="Clip_16-2" data-name="Clip 16" class="cls-1" d="M29.763,37H59.525V0H0V37Z" transform="translate(0)"/>
      <g id="Group_17-2" data-name="Group 17" class="cls-2">
        <path id="Fill_15" data-name="Fill 15" d="M6.611,37H6.319a1.659,1.659,0,0,1-1.683-1.378L.026,8.779A1.509,1.509,0,0,1,.32,7.545a1.745,1.745,0,0,1,1.1-.653l1.9-.363-.292-1.6a.749.749,0,0,1,.585-.87.832.832,0,0,1,.134-.011.754.754,0,0,1,.744.592l.293,1.6L10.2,5.3,9.832,3.337a.748.748,0,0,1,.585-.87.827.827,0,0,1,.135-.011.753.753,0,0,1,.743.592l.365,1.958,6.146-1.015-.365-2.1a.749.749,0,0,1,.585-.87A.831.831,0,0,1,18.162,1,.751.751,0,0,1,18.9,1.6l.365,2.1,5.855-1.015-.293-1.6a.749.749,0,0,1,.586-.87.828.828,0,0,1,.135-.011A.751.751,0,0,1,26.294.8l.293,1.6,1.9-.363a1.523,1.523,0,0,1,.247-.02,1.715,1.715,0,0,1,1.655,1.4v.145A18.468,18.468,0,0,1,41.295,0a16.528,16.528,0,0,1,1.9.073,15.558,15.558,0,0,1,2.56.435A18.046,18.046,0,0,1,57.047,8.843a17.632,17.632,0,0,1,2.293,6.451,17.357,17.357,0,0,1-.411,7.052A18.229,18.229,0,0,1,41.222,36.057a18.915,18.915,0,0,1-4.464-.581,18.117,18.117,0,0,1-11.241-8.305,17.835,17.835,0,0,1-2-13.677,19.907,19.907,0,0,1,1.209-3.238c-.165.277-.3.56-.451.859-.056.113-.113.229-.173.348L2.515,15.09,6.026,35.4c0,.032.029.068.081.1a.3.3,0,0,0,.139.046h.073l22.464-3.773,1.244,1.161-.293.145L6.611,37ZM41.295,1.379A16.8,16.8,0,0,0,24.978,14a16.425,16.425,0,0,0,1.841,12.552A16.79,16.79,0,0,0,37.2,34.243a15.5,15.5,0,0,0,4.1.508A16.8,16.8,0,0,0,57.612,22.127,16.425,16.425,0,0,0,55.77,9.575,16.79,16.79,0,0,0,45.392,1.886,15.5,15.5,0,0,0,41.295,1.379ZM3.539,7.98l-1.9.363a.26.26,0,0,0-.147.073h0a.059.059,0,0,0-.063.045.341.341,0,0,0-.009.1L2.3,13.712,24.908,9.879a19.787,19.787,0,0,1,1.24-2.116,17.927,17.927,0,0,1,2.927-3.337L28.929,3.41c0-.032-.029-.068-.081-.1a.3.3,0,0,0-.139-.046l-1.976.364.292,1.6a.748.748,0,0,1-.585.87h-.147a.714.714,0,0,1-.732-.58l-.293-1.6L19.417,4.933l.22,1.161a.751.751,0,0,1-.585.871H18.9a.713.713,0,0,1-.732-.58l-.22-1.161L11.807,6.239,12.1,7.763a.751.751,0,0,1-.585.871h-.147a.713.713,0,0,1-.732-.58l-.22-1.306L5,7.691l.293,1.6a.749.749,0,0,1-.585.87H4.563a.713.713,0,0,1-.732-.58Z" transform="translate(0)"/>
      </g>
    </g>
    <path id="Fill_18" data-name="Fill 18" d="M4.82,13.252a3.411,3.411,0,0,1-2.688-1.221,9.879,9.879,0,0,1-1.9-4.716,9.388,9.388,0,0,1,.22-5.079A3.573,3.573,0,0,1,3.375.06,4.821,4.821,0,0,1,4.117,0a3.319,3.319,0,0,1,2.7,1.293,9.222,9.222,0,0,1,1.9,4.643,9.378,9.378,0,0,1-.22,5.079A3.457,3.457,0,0,1,5.57,13.191,4.872,4.872,0,0,1,4.82,13.252Zm-.7-11.995a3.043,3.043,0,0,0-.456.036,2.19,2.19,0,0,0-1.9,1.6,9.665,9.665,0,0,0,0,4.136,9.4,9.4,0,0,0,1.318,3.917,2.238,2.238,0,0,0,1.883.979,3.031,3.031,0,0,0,.458-.036,2.363,2.363,0,0,0,1.9-1.669,9.193,9.193,0,0,0,0-4.063A9.406,9.406,0,0,0,6.009,2.237,2.243,2.243,0,0,0,4.124,1.257Z" transform="translate(9.09 16.699)"/>
    <path id="Fill_20" data-name="Fill 20" d="M3.3,1.306,3.523,0H3.376A3.675,3.675,0,0,0,.669,1.669,4.485,4.485,0,0,0,.083,5.006,3.846,3.846,0,0,0,1.547,7.618a3.654,3.654,0,0,0,2.341.58,7.876,7.876,0,0,1-.366-1.233A2.577,2.577,0,0,1,2.5,6.529a2.927,2.927,0,0,1-.951-1.886A3.373,3.373,0,0,1,1.84,2.322,2.18,2.18,0,0,1,3.3,1.306" transform="translate(19.187 15.09)"/>
    <path id="Fill_22" data-name="Fill 22" d="M1.829,1.6a13.438,13.438,0,0,0,1.829-.508C3.512.8,3.293.435,3.073,0A4.322,4.322,0,0,1,1.61.435,6.25,6.25,0,0,1,0,.508L.22,1.741A7.241,7.241,0,0,0,1.829,1.6" transform="translate(21.539 26.771)"/>
  </g>
  <path id="Fill_5-2" data-name="Fill 5" d="M45.375,90.75A45.375,45.375,0,1,1,90.75,45.375,45.426,45.426,0,0,1,45.375,90.75Zm0-88.75A43.375,43.375,0,1,0,88.75,45.375,43.425,43.425,0,0,0,45.375,2Z" transform="translate(0 0)"/>
</svg>
