<svg xmlns="http://www.w3.org/2000/svg" viewBox="0 0 90.75 90.75"><defs><style>.a{fill:#005baa;}</style></defs><path class="a" d="M45.375,90.75A45.375,45.375,0,1,1,90.75,45.375,45.426,45.426,0,0,1,45.375,90.75Zm0-88.75A43.375,43.375,0,1,0,88.75,45.375,43.425,43.425,0,0,0,45.375,2Z"/><path class="a" d="M43.3,18h4.127c-.2-1.132.964-2.953.426-3.9-.581-1.027-2.982-.807-3.684-1.743s.12-3.257-.7-4.093-3.081.009-4-.713-.7-3.177-1.7-3.772-2.97.824-4.043.369-1.477-2.881-2.6-3.189c-1.106-.3-2.651,1.589-3.81,1.435C26.189,2.238,25.173,0,24,0S21.811,2.238,20.68,2.389c-1.158.154-2.7-1.737-3.81-1.435-1.125.308-1.541,2.739-2.6,3.189s-3.046-.959-4.043-.369-.788,3.052-1.7,3.771-3.182-.123-4,.713.009,3.154-.7,4.093-3.1.717-3.685,1.743c-.538.952.628,2.774.426,3.905H4.7A21.694,21.694,0,0,1,24,5.951,21.7,21.7,0,0,1,43.3,18Z" transform="translate(22 18)"/><path class="a" d="M24,12A22.071,22.071,0,0,1,4.7,0H.569c.2,1.385-.964,2.978-.426,3.925.581,1.023,2.982.822,3.684,1.754s-.12,3.253.7,4.086,3.081,0,4,.714.7,3.167,1.7,3.759,2.97-.82,4.043-.367,1.477,2.87,2.6,3.177c1.106.3,2.651-1.583,3.81-1.428C21.811,15.771,22.828,18,24,18s2.189-2.229,3.321-2.379c1.158-.154,2.7,1.73,3.81,1.429,1.125-.307,1.541-2.728,2.6-3.176s3.046.955,4.043.368.788-3.04,1.7-3.756,3.181.123,4-.71-.009-3.141.7-4.076,3.1-.75,3.685-1.773c.537-.949-.629-2.544-.426-3.928H43.3A22.07,22.07,0,0,1,24,12" transform="translate(22 56)"/><path class="a" d="M3,0l.927,1.646L6,1.91,4.5,3.191,4.855,5,3,4.146,1.145,5,1.5,3.191,0,1.91l2.073-.264Z" transform="translate(35 29)"/><path class="a" d="M3,0l.927,1.646L6,1.91,4.5,3.191,4.855,5,3,4.146,1.145,5,1.5,3.191,0,1.91l2.073-.264Z" transform="translate(53 29)"/><path class="a" d="M3,0l.927,1.646L6,1.91,4.5,3.191,4.855,5,3,4.146,1.145,5,1.5,3.191,0,1.91l2.073-.264Z" transform="translate(44 27)"/><path class="a" d="M3,5,2.073,3.354,0,3.09,1.5,1.809,1.145,0,3,.854,4.855,0,4.5,1.809,6,3.09l-2.073.264Z" transform="translate(53 57)"/><path class="a" d="M3,5,2.073,3.354,0,3.09,1.5,1.809,1.145,0,3,.854,4.855,0,4.5,1.809,6,3.09l-2.073.264Z" transform="translate(35 57)"/><path class="a" d="M3,5,2.073,3.354,0,3.09,1.5,1.809,1.145,0,3,.854,4.855,0,4.5,1.809,6,3.09l-2.073.264Z" transform="translate(44 59)"/><path class="a" d="M59,17H0L2.744,8.5,0,0H59L56.256,8.5Z" transform="translate(17 37)"/></svg>