<svg id="icon-pink-black-box" xmlns="http://www.w3.org/2000/svg" viewBox="0 0 60 60">
  <defs>
    <style>
      .cls-1 {
        fill: #d8127d;
      }
    </style>
  </defs>
  <path id="Fill_5" data-name="Fill 5" class="cls-1" d="M30,60A30,30,0,1,1,60,30,30.034,30.034,0,0,1,30,60ZM30,1.322A28.678,28.678,0,1,0,58.677,30,28.71,28.71,0,0,0,30,1.322Z"/>
  <path id="Fill_1" data-name="Fill 1" class="cls-1" d="M18.653,32.033a.871.871,0,0,1-.61-.25L2.907,16.754a9.742,9.742,0,0,1,0-13.883,10,10,0,0,1,14.027,0l1.719,1.7,1.719-1.7a10,10,0,0,1,14.027,0,9.79,9.79,0,0,1,0,13.929L19.263,31.783A.862.862,0,0,1,18.653,32.033ZM9.92,1.7A8.181,8.181,0,0,0,4.126,4.077a8.049,8.049,0,0,0,0,11.471l2.328,2.3,12.2,12.119L33.179,15.594a8.094,8.094,0,0,0,0-11.517,8.249,8.249,0,0,0-11.588,0l-2.328,2.3a.869.869,0,0,1-1.219,0l-2.328-2.3A8.182,8.182,0,0,0,9.92,1.7Z" transform="translate(11.253 15.5)"/>
</svg>
