<svg id="picto" xmlns="http://www.w3.org/2000/svg" xmlns:xlink="http://www.w3.org/1999/xlink" viewBox="0 0 40 40">
  <defs>
    <style>
      .cls-1 {
        fill: none;
      }

      .cls-2 {
        clip-path: url(#clip-path);
      }

      .cls-3 {
        clip-path: url(#clip-path-2);
      }

      .cls-4 {
        clip-path: url(#clip-path-3);
      }
    </style>
    <clipPath id="clip-path">
      <path id="Clip_2" data-name="Clip 2" class="cls-1" d="M14.145,0H0V13.672H14.145V0Z" transform="translate(0.318 0.039)"/>
    </clipPath>
    <clipPath id="clip-path-2">
      <path id="Clip_5" data-name="Clip 5" class="cls-1" d="M21.738,9.553V0H0V9.553Z" transform="translate(0 0.012)"/>
    </clipPath>
    <clipPath id="clip-path-3">
      <path id="Clip_8" data-name="Clip 8" class="cls-1" d="M0,23.478H23.478V0H0Z" transform="translate(9.565 7.826)"/>
    </clipPath>
  </defs>
  <path id="Fill_5" data-name="Fill 5" d="M20,40A20,20,0,1,1,40,20,20.022,20.022,0,0,1,20,40ZM20,.881A19.119,19.119,0,1,0,39.118,20,19.14,19.14,0,0,0,20,.881Z"/>
  <g id="Group_3" data-name="Group 3" transform="translate(13.913 7.826)">
    <path id="Clip_2-2" data-name="Clip 2" class="cls-1" d="M14.145,0H0V13.672H14.145V0Z" transform="translate(0.318 0.039)"/>
    <g id="Group_3-2" data-name="Group 3" class="cls-2">
      <path id="Fill_1" data-name="Fill 1" d="M7.083,13.673h0l-.28-.3c-.041-.045-4.387-4.717-5.357-5.653a4.485,4.485,0,0,1-.433-6.136A4.169,4.169,0,0,1,4.14,0,3.433,3.433,0,0,1,7.073,1.84,3.456,3.456,0,0,1,10.028,0a4.18,4.18,0,0,1,3.131,1.583,4.55,4.55,0,0,1-.434,6.131c-.83.822-4.272,4.493-5.307,5.6l-.054.058-.281.3ZM4.14.795A3.435,3.435,0,0,0,1.587,2.118,3.67,3.67,0,0,0,1.981,7.14c.91.881,4.677,4.922,5.1,5.38,2.833-3.024,4.549-4.833,5.1-5.377a3.733,3.733,0,0,0,.4-5.028A3.387,3.387,0,0,0,10.028.795,2.914,2.914,0,0,0,7.435,2.884l-.362.943L6.71,2.884A2.9,2.9,0,0,0,4.14.795Z" transform="translate(0.318 0.039)"/>
    </g>
  </g>
  <g id="Group_6" data-name="Group 6" transform="translate(11.304 20.87)">
    <path id="Clip_5-2" data-name="Clip 5" class="cls-1" d="M21.738,9.553V0H0V9.553Z" transform="translate(0 0.012)"/>
    <g id="Group_6-2" data-name="Group 6" class="cls-3">
      <path id="Fill_4" data-name="Fill 4" d="M5.929,9.554H0V1.785l.155-.12A7.952,7.952,0,0,1,4.128,0a2.257,2.257,0,0,1,1.4.438,3.758,3.758,0,0,0,2.265.734H9.335A3.388,3.388,0,0,1,12.176,2.66a1.332,1.332,0,0,1,.239,1.331,6.405,6.405,0,0,0,2.548-.37l3.408-2.1A4.531,4.531,0,0,1,20.32.833a1.422,1.422,0,0,1,1.2.743,1.173,1.173,0,0,1-.205,1.574l-.009.008-5.991,4.7a2.387,2.387,0,0,1-1.305.657,2.573,2.573,0,0,1-.544.063l-5.124.786A16,16,0,0,1,5.929,9.554ZM4.117.794A6.741,6.741,0,0,0,.79,2.181V8.756H5.929a15.175,15.175,0,0,0,2.3-.175l5.211-.794a1.932,1.932,0,0,0,.426-.049,1.659,1.659,0,0,0,.922-.465l.031-.027,6-4.712a.371.371,0,0,0,.063-.493c-.169-.238-.291-.41-.591-.41a3.98,3.98,0,0,0-1.53.582l-3.406,2.1a8.319,8.319,0,0,1-3.428.478c-.307,0-.64,0-1.081-.012h-.113l-.1,0c-.059,0-.119,0-.185,0-.1,0-.211,0-.311-.01l.027-.8c.115,0,.254,0,.438,0,.464-.02.982-.126,1.092-.319.056-.1-.01-.3-.176-.554A2.6,2.6,0,0,0,9.335,1.97H7.794a4.546,4.546,0,0,1-2.741-.9A1.508,1.508,0,0,0,4.117.794Z" transform="translate(0 0.012)"/>
    </g>
  </g>
  <path id="Clip_8-2" data-name="Clip 8" class="cls-1" d="M0,23.478H23.478V0H0Z" transform="translate(9.565 7.826)"/>
  <g class="cls-4">
    <path id="Fill_7" data-name="Fill 7" d="M2.609,10.435H0V0H2.609V10.434ZM.745.8V9.632H1.863V.8Z" transform="translate(9.565 20.87)"/>
    <path id="Fill_9" data-name="Fill 9" d="M.387,1.739A.369.369,0,0,1,0,1.391C0,.52.724,0,1.936,0H5.7a.369.369,0,0,1,.387.348A.369.369,0,0,1,5.7.7H1.936C.775.7.775,1.219.775,1.391a.369.369,0,0,1-.387.348" transform="translate(15.652 24.348)"/>
  </g>
</svg>
