<svg id="Groupe_53" data-name="Groupe 53" xmlns="http://www.w3.org/2000/svg" viewBox="0 0 20.732 24.247">
  <defs>
    <style>
      .cls-1 {
        fill: #777;
      }
    </style>
  </defs>
  <path id="Tracé_1" data-name="Tracé 1" class="cls-1" d="M14.9,21.942a.677.677,0,0,1-.549-.284l-.042-.065C13.156,19.9,7.36,11.263,7.36,7.535A7.546,7.546,0,0,1,14.918,0a7.466,7.466,0,0,1,2.745.522L18,.664A7.642,7.642,0,0,1,19.41,1.5c.1.073.192.146.284.223a7.145,7.145,0,0,1,.66.614,7.228,7.228,0,0,1,.894,1.152c.035.05.065.1.1.157s.123.2.18.311.111.215.165.326.1.223.15.334.1.226.138.345c.084.23.157.468.219.706.031.119.058.242.084.384a7.689,7.689,0,0,1,.15,1.324h0v.192a8.586,8.586,0,0,1-.679,2.914c-.161.434-.357.9-.576,1.386-.131.284-.265.572-.407.86-.092.2-.188.384-.288.583l-.3.583-.3.553c-.3.545-.622,1.125-.964,1.72-.219.384-.434.737-.649,1.09s-.43.695-.633,1.01l-.3.476c-1.059,1.689-1.885,2.883-1.892,2.894a.669.669,0,0,1-.549.292Zm0-20.6A6.2,6.2,0,0,0,8.7,7.535c0,2.58,3.677,8.764,6.2,12.533.33-.5.791-1.205,1.309-2.027l.292-.472c.2-.322.407-.656.618-1.006s.422-.71.633-1.075c.338-.583.656-1.152.944-1.685.1-.188.2-.384.3-.568s.2-.384.292-.564.188-.384.28-.564c.134-.276.265-.553.384-.825.207-.461.384-.9.545-1.305a7.46,7.46,0,0,0,.591-2.441V7.378h0a6.158,6.158,0,0,0-.123-1.09q-.029-.15-.069-.3c-.05-.2-.111-.388-.18-.58-.035-.1-.073-.192-.111-.28s-.081-.188-.123-.276-.088-.18-.138-.269-.1-.173-.15-.257L20.12,4.2a6.435,6.435,0,0,0-.737-.937,6.173,6.173,0,0,0-.545-.507L18.6,2.572a6.111,6.111,0,0,0-1.152-.683l-.28-.131A6.142,6.142,0,0,0,14.9,1.344Zm0,9.4a3.347,3.347,0,0,1-.05-6.687h.05a3.347,3.347,0,0,1,0,6.695Zm0-5.351a2,2,0,1,0,2,2A2.005,2.005,0,0,0,14.9,5.4Z" transform="translate(-4.535 0)"/>
  <path id="Tracé_2" data-name="Tracé 2" class="cls-1" d="M17.332,51.847a36.039,36.039,0,0,0-4.011-.407c-.319.5-.6.94-.845,1.305a23.74,23.74,0,0,1,6.61.906c-1.017.411-3.942.944-8.721.944s-7.7-.534-8.721-.944a24.073,24.073,0,0,1,6.606-.906c-.257-.384-.541-.825-.848-1.305a36.836,36.836,0,0,0-4,.407c-2.384.415-3.4.937-3.4,1.8s1.017,1.409,3.4,1.808a44.481,44.481,0,0,0,6.963.48,44.562,44.562,0,0,0,6.967-.48c2.384-.384,3.4-.94,3.4-1.808S19.715,52.261,17.332,51.847Z" transform="translate(0 -31.694)"/>
</svg>
