<svg xmlns="http://www.w3.org/2000/svg" xmlns:xlink="http://www.w3.org/1999/xlink" viewBox="0 0 40 40">
  <defs>
    <style>
      .cls-1 {
        fill: none;
      }

      .cls-2 {
        clip-path: url(#clip-path);
      }
    </style>
    <clipPath id="clip-path">
      <path id="Clip_2" data-name="Clip 2" class="cls-1" d="M0,27H20V0H0V27Z" transform="translate(10 5)"/>
    </clipPath>
  </defs>
  <g id="picto" transform="translate(0)">
    <path id="Clip_2-2" data-name="Clip 2" class="cls-1" d="M0,27H20V0H0V27Z" transform="translate(10 5)"/>
    <g id="picto-2" data-name="picto" class="cls-2">
      <path id="Fill_1" data-name="Fill 1" d="M14.84,27a.4.4,0,0,1-.4-.386V22.64c-1.115,1.3-2.144,2.046-2.823,2.046H9.305L5.368,26.945a.419.419,0,0,1-.407,0,.384.384,0,0,1-.2-.336V21.621a19,19,0,0,1-2.779-5.429l-.019,0a.1.1,0,0,1-.025,0,.411.411,0,0,1-.285-.113C.511,15-.38,13.052.164,11.8a1.649,1.649,0,0,1,1.366-.967V7.329A6.679,6.679,0,0,1,4.011,1.95,9.411,9.411,0,0,1,9.421.015.425.425,0,0,1,9.534,0h.932a.425.425,0,0,1,.112.015,9.413,9.413,0,0,1,5.41,1.935,6.679,6.679,0,0,1,2.482,5.378v3.5a1.653,1.653,0,0,1,1.366.968c.543,1.252-.348,3.2-1.484,4.285a.411.411,0,0,1-.285.113.109.109,0,0,1-.026,0l-.019,0a18.963,18.963,0,0,1-2.779,5.429v4.994A.4.4,0,0,1,14.84,27ZM10,.771c-3.691,0-7.664,2.052-7.664,6.557V13.5c0,4.724,4.869,10.414,6.051,10.414h3.227c1.181,0,6.05-5.689,6.05-10.414V7.329C17.663,2.823,13.691.771,10,.771ZM1.53,11.617a.821.821,0,0,0-.622.48,3.351,3.351,0,0,0,.752,2.8A8.278,8.278,0,0,1,1.53,13.5Zm16.941,0V13.5a7.976,7.976,0,0,1-.133,1.393,3.341,3.341,0,0,0,.754-2.8A.825.825,0,0,0,18.471,11.614Z" transform="translate(10 5)"/>
    </g>
    <path id="Fill_5" data-name="Fill 5" d="M20,40A20,20,0,1,1,40,20,20.022,20.022,0,0,1,20,40ZM20,.881A19.119,19.119,0,1,0,39.118,20,19.14,19.14,0,0,0,20,.881Z"/>
  </g>
</svg>
