<?xml version="1.0" encoding="utf-8"?>
<!-- Generator: Adobe Illustrator 23.0.4, SVG Export Plug-In . SVG Version: 6.00 Build 0)  -->
<svg version="1.1"
	 id="Calque_1" xmlns:cc="http://creativecommons.org/ns#" xmlns:dc="http://purl.org/dc/elements/1.1/" xmlns:inkscape="http://www.inkscape.org/namespaces/inkscape" xmlns:rdf="http://www.w3.org/1999/02/22-rdf-syntax-ns#" xmlns:sodipodi="http://sodipodi.sourceforge.net/DTD/sodipodi-0.dtd" xmlns:svg="http://www.w3.org/2000/svg"
	 xmlns="http://www.w3.org/2000/svg" xmlns:xlink="http://www.w3.org/1999/xlink" x="0px" y="0px" viewBox="0 0 100 125"
	 style="enable-background:new 0 0 100 125;" xml:space="preserve">
<g transform="translate(0,-952.36218)">
	<path d="M50,963.4c-1.1,0-2,0.9-2,2v8c0,1.1,0.9,2,2,2c1.1,0,2-0.9,2-2v-8C52,964.3,51.1,963.4,50,963.4z M21.7,975.1
		c-0.5,0-1,0.2-1.4,0.6c-0.8,0.8-0.8,2,0,2.8l5.7,5.7c0.8,0.8,2,0.8,2.8,0c0.8-0.8,0.8-2,0-2.8l-5.7-5.7
		C22.7,975.3,22.2,975.1,21.7,975.1z M78.3,975.1c-0.5,0-1,0.2-1.4,0.6l-5.7,5.7c-0.8,0.8-0.8,2,0,2.8c0.8,0.8,2,0.8,2.8,0l5.7-5.7
		c0.8-0.8,0.8-2,0-2.8C79.3,975.3,78.8,975.1,78.3,975.1z M50,979.4c-13.2,0-26,10.3-26,24.8c0,9.2,3.6,15,6.9,19.7
		s6.1,8.1,6.1,13.5v12c0,3.4,2.8,6,6,6h1c0,3.3,2.7,6,6,6s6-2.7,6-6h1c3.2,0,6-2.6,6-6v-12c0-5.4,2.8-8.8,6.1-13.5
		s6.9-10.5,6.9-19.7C76,989.6,63.2,979.4,50,979.4z M50,983.4c11.2,0,22,8.6,22,20.8c0,8.2-2.9,12.8-6.1,17.4
		c-2.9,4.1-6.1,8.1-6.8,13.8H40.9c-0.6-5.7-3.9-9.7-6.8-13.8c-3.2-4.5-6.1-9.2-6.1-17.4C28,992,38.8,983.4,50,983.4z M44.1,987.5
		c-0.3,0-0.6,0-0.8,0.1c-6.2,2.3-10.8,7.8-12,14.4c-0.2,1,0.6,2.2,1.6,2.3c1,0.2,2.1-0.6,2.3-1.6c0.9-5.3,4.6-9.6,9.5-11.4
		c0.9-0.3,1.4-1.3,1.3-2.2C45.7,987.9,44.9,987.5,44.1,987.5z M10,1003.4c-1.1,0-2,0.9-2,2s0.9,2,2,2h8c1.1,0,2-0.9,2-2s-0.9-2-2-2
		H10z M82,1003.4c-1.1,0-2,0.9-2,2s0.9,2,2,2h8c1.1,0,2-0.9,2-2s-0.9-2-2-2H82z M41,1039.4h18v4H41V1039.4z M41,1047.4h18v2
		c0,1.2-1,2-2,2H43c-1,0-2-0.8-2-2V1047.4z M48,1055.4h4c0,1.1-0.9,2-2,2S48,1056.5,48,1055.4z"/>
</g>
</svg>
