<svg xmlns="http://www.w3.org/2000/svg" viewBox="0 0 39.89 39.89">
  <defs>
    <style>
      .cls-1 {
        fill: none;
        stroke: #000;
        stroke-miterlimit: 10;
      }
    </style>
  </defs>
  <g id="picto" transform="translate(0)">
    <path id="Fill_5" data-name="Fill 5" d="M19.945,39.89A19.945,19.945,0,1,1,39.89,19.945,19.967,19.967,0,0,1,19.945,39.89Zm0-39.011A19.066,19.066,0,1,0,39.011,19.945,19.087,19.087,0,0,0,19.945.879Z"/>
    <path id="Fill_1" data-name="Fill 1" d="M10.549,2.616a9.538,9.538,0,0,1,8.485,5.3h1.814c-.089-.5.424-1.3.187-1.716-.255-.451-1.311-.355-1.619-.766s.053-1.432-.306-1.8-1.354,0-1.758-.314-.308-1.4-.749-1.658-1.305.362-1.777.162S14.178.555,13.684.419s-1.165.7-1.675.631S11.065,0,10.55,0,9.587.984,9.09,1.05,7.9.286,7.416.419s-.677,1.2-1.144,1.4S4.933,1.4,4.5,1.659,4.148,3,3.746,3.317s-1.4-.054-1.758.313,0,1.386-.306,1.8S.318,5.744.063,6.2c-.236.418.276,1.219.187,1.717H2.064a9.536,9.536,0,0,1,8.485-5.3" transform="translate(9.67 7.912)"/>
    <path id="Fill_3" data-name="Fill 3" d="M10.549,5.275A9.7,9.7,0,0,1,2.064,0H.25C.339.609-.174,1.309.063,1.725c.255.449,1.311.362,1.619.771s-.053,1.43.306,1.8,1.354,0,1.758.314S4.054,6,4.494,6.259,5.8,5.9,6.271,6.1s.649,1.262,1.144,1.4,1.165-.7,1.675-.628.945,1.046,1.46,1.046.962-.98,1.46-1.046,1.188.76,1.675.628.677-1.2,1.144-1.4,1.339.42,1.777.162.347-1.336.749-1.651,1.4.054,1.758-.312,0-1.381.306-1.792,1.364-.33,1.62-.779C21.272,1.309,20.76.609,20.849,0H19.034a9.7,9.7,0,0,1-8.485,5.275" transform="translate(9.67 24.615)"/>
    <path id="Fill_5-2" data-name="Fill 5" d="M1.319,0l.407.724L2.637.84,1.978,1.4l.156.795-.815-.375L.5,2.2.659,1.4,0,.84.911.724Z" transform="translate(15.385 12.747)"/>
    <path id="Fill_7" data-name="Fill 7" d="M1.319,0l.407.724L2.637.84,1.978,1.4l.156.795-.815-.375L.5,2.2.659,1.4,0,.84.911.724Z" transform="translate(23.297 12.747)"/>
    <path id="Fill_9" data-name="Fill 9" d="M1.319,0l.407.724L2.637.84,1.978,1.4l.156.795-.815-.375L.5,2.2.659,1.4,0,.84.911.724Z" transform="translate(19.341 11.868)"/>
    <path id="Fill_11" data-name="Fill 11" d="M1.319,2.2.911,1.474,0,1.358.659.8.5,0l.815.375L2.134,0,1.978.8l.659.563-.911.116Z" transform="translate(23.297 25.055)"/>
    <path id="Fill_13" data-name="Fill 13" d="M1.319,2.2.911,1.474,0,1.358.659.8.5,0l.815.375L2.134,0,1.978.8l.659.563-.911.116Z" transform="translate(15.385 25.055)"/>
    <path id="Fill_15" data-name="Fill 15" d="M1.319,2.2.911,1.474,0,1.358.659.8.5,0l.815.375L2.134,0,1.978.8l.659.563-.911.116Z" transform="translate(19.341 25.934)"/>
    <path id="Fill_17" data-name="Fill 17" class="cls-1" d="M25.934,7.473H0L1.206,3.736,0,0H25.934L24.728,3.736Z" transform="translate(7.473 16.264)"/>
  </g>
</svg>
