<svg id="picto" xmlns="http://www.w3.org/2000/svg" xmlns:xlink="http://www.w3.org/1999/xlink" viewBox="0 0 61 61">
  <defs>
    <style>
      .cls-1 {
        fill: none;
      }

      .cls-2 {
        fill: #005baa;
      }

      .cls-3 {
        clip-path: url(#clip-path);
      }
    </style>
    <clipPath id="clip-path">
      <path id="Clip_16" data-name="Clip 16" class="cls-1" d="M19.842,25H39.683V0H0V25Z" transform="translate(10 18)"/>
    </clipPath>
  </defs>
  <path id="Fill_1" data-name="Fill 1" class="cls-2" d="M.281,0,1,.279.72,2,0,1.721Z" transform="translate(39 21)"/>
  <path id="Fill_2" data-name="Fill 2" class="cls-2" d="M1.721,1,0,.719.279,0,2,.281Z" transform="translate(45 32)"/>
  <path id="Fill_3" data-name="Fill 3" class="cls-2" d="M.719,2,0,1.721.281,0,1,.279Z" transform="translate(35 38)"/>
  <path id="Fill_4" data-name="Fill 4" class="cls-2" d="M.279,0,2,.281,1.721,1,0,.72Z" transform="translate(29 27)"/>
  <path id="Fill_5" data-name="Fill 5" class="cls-2" d="M.77,0,2,1.2,1.23,2,0,.8Z" transform="translate(31 23)"/>
  <path id="Fill_6" data-name="Fill 6" class="cls-2" d="M1.2,0,2,.77.8,2,0,1.23Z" transform="translate(42 23)"/>
  <path id="Fill_7" data-name="Fill 7" class="cls-2" d="M1.23,2,0,.8.77,0,2,1.2Z" transform="translate(43 35)"/>
  <path id="Fill_8" data-name="Fill 8" class="cls-2" d="M.8,2,0,1.23,1.2,0,2,.77Z" transform="translate(31 36)"/>
  <path id="Fill_9" data-name="Fill 9" class="cls-2" d="M.316,1,0,.311,1.684,0,2,.689Z" transform="translate(29 32)"/>
  <path id="Fill_10" data-name="Fill 10" class="cls-2" d="M.689,0,1,1.684.31,2,0,.316Z" transform="translate(35 21)"/>
  <path id="Fill_11" data-name="Fill 11" class="cls-2" d="M.009,2.951A.485.485,0,0,0,.5,3.294H.643L9.278.941A.5.5,0,0,0,9.619.353.5.5,0,0,0,9.034.009L.4,2.362a.474.474,0,0,0-.39.588" transform="translate(36.935 27.255)"/>
  <path id="Fill_13" data-name="Fill 13" class="cls-2" d="M.422,1.733,0,.274.937,0l.422,1.459Z" transform="translate(39.028 37.396)"/>
  <path id="Clip_16-2" data-name="Clip 16" class="cls-1" d="M19.842,25H39.683V0H0V25Z" transform="translate(10 18)"/>
  <g id="picto-2" data-name="picto" class="cls-3">
    <path id="Fill_15" data-name="Fill 15" class="cls-2" d="M4.408,25h-.2a1.111,1.111,0,0,1-1.122-.931L.018,5.931A1.03,1.03,0,0,1,.212,5.1a1.165,1.165,0,0,1,.732-.441l1.269-.245-.2-1.078a.507.507,0,0,1,.39-.589A.549.549,0,0,1,2.5,2.738a.5.5,0,0,1,.5.4l.2,1.078L6.8,3.578,6.554,2.255a.512.512,0,0,1,.391-.588.544.544,0,0,1,.09-.008.5.5,0,0,1,.495.4l.244,1.323,4.1-.686-.244-1.422a.506.506,0,0,1,.391-.588.544.544,0,0,1,.091-.008.5.5,0,0,1,.494.4L12.847,2.5l3.9-.687L16.555.735a.506.506,0,0,1,.39-.589.546.546,0,0,1,.089-.007.505.505,0,0,1,.5.4l.194,1.078,1.269-.245a1,1,0,0,1,.165-.014,1.149,1.149,0,0,1,1.1.945v.1A12.279,12.279,0,0,1,27.53,0,11.014,11.014,0,0,1,28.8.049a10.413,10.413,0,0,1,1.707.294A12.067,12.067,0,0,1,39.286,15.1a12.185,12.185,0,0,1-11.805,9.265,12.465,12.465,0,0,1-2.975-.392,12.041,12.041,0,0,1-7.457-5.549,12.183,12.183,0,0,1-1.372-9.3,13.6,13.6,0,0,1,.806-2.188c-.112.19-.206.384-.3.589-.036.075-.073.15-.11.227L1.676,10.2,4.018,23.922c0,.021.02.045.054.066a.2.2,0,0,0,.093.031h.049L19.188,21.47l.83.785-.2.1L4.408,25ZM27.53.932A11.279,11.279,0,0,0,24.8,23.137a10.215,10.215,0,0,0,2.732.343A11.279,11.279,0,0,0,30.262,1.274,10.211,10.211,0,0,0,27.53.932ZM2.359,5.392l-1.268.246a.171.171,0,0,0-.1.049h0a.04.04,0,0,0-.042.03.231.231,0,0,0-.006.067l.586,3.48,15.076-2.59a13.391,13.391,0,0,1,.826-1.429A12.078,12.078,0,0,1,19.383,2.99l-.1-.686c0-.022-.02-.047-.056-.068a.208.208,0,0,0-.091-.03l-1.317.245.2,1.079a.512.512,0,0,1-.391.588h-.1a.477.477,0,0,1-.488-.392l-.2-1.078-3.9.687.146.784a.507.507,0,0,1-.39.589h-.1a.477.477,0,0,1-.488-.392l-.146-.784-4.1.686.2,1.03a.506.506,0,0,1-.391.588h-.1a.477.477,0,0,1-.488-.391l-.147-.883L3.334,5.2l.2,1.079a.512.512,0,0,1-.391.588h-.1a.477.477,0,0,1-.488-.391Z" transform="translate(10 18)"/>
    <path id="Fill_18" data-name="Fill 18" class="cls-2" d="M3.214,8.955a2.261,2.261,0,0,1-1.793-.826A6.712,6.712,0,0,1,.152,4.943,6.425,6.425,0,0,1,.3,1.511,2.386,2.386,0,0,1,2.25.041,3.178,3.178,0,0,1,2.744,0a2.2,2.2,0,0,1,1.8.874A6.269,6.269,0,0,1,5.811,4.011a6.417,6.417,0,0,1-.147,3.432A2.31,2.31,0,0,1,3.713,8.914,3.211,3.211,0,0,1,3.214,8.955ZM2.75.85a2,2,0,0,0-.3.024A1.462,1.462,0,0,0,1.177,1.952a6.611,6.611,0,0,0,0,2.795,6.4,6.4,0,0,0,.877,2.647,1.489,1.489,0,0,0,1.257.662,2,2,0,0,0,.3-.024A1.583,1.583,0,0,0,4.884,6.9a6.29,6.29,0,0,0,0-2.746,6.406,6.406,0,0,0-.878-2.647A1.486,1.486,0,0,0,2.75.85Z" transform="translate(16.06 29.283)"/>
    <path id="Fill_20" data-name="Fill 20" class="cls-2" d="M2.2.882,2.348,0h-.1a2.447,2.447,0,0,0-1.8,1.127,3.065,3.065,0,0,0-.39,2.255,2.607,2.607,0,0,0,.976,1.765,2.411,2.411,0,0,0,1.561.392,5.376,5.376,0,0,1-.244-.833,1.706,1.706,0,0,1-.683-.294,1.987,1.987,0,0,1-.634-1.275,2.306,2.306,0,0,1,.2-1.569A1.454,1.454,0,0,1,2.2.882" transform="translate(22.791 28.196)"/>
    <path id="Fill_22" data-name="Fill 22" class="cls-2" d="M1.22,1.078A8.865,8.865,0,0,0,2.439.735C2.341.539,2.2.294,2.049,0a2.853,2.853,0,0,1-.976.294A4.112,4.112,0,0,1,0,.343l.146.833a4.765,4.765,0,0,0,1.073-.1" transform="translate(24.359 36.088)"/>
  </g>
  <path id="Fill_5-2" data-name="Fill 5" class="cls-2" d="M30.5,61A30.5,30.5,0,1,1,61,30.5,30.535,30.535,0,0,1,30.5,61Zm0-59.656A29.156,29.156,0,1,0,59.656,30.5,29.189,29.189,0,0,0,30.5,1.345Z"/>
</svg>
