<svg xmlns="http://www.w3.org/2000/svg" xmlns:xlink="http://www.w3.org/1999/xlink" viewBox="0 0 90.75 90.75"><defs><style>.a{fill:none;}.b{clip-path:url(#a);}</style><clipPath id="a"><path class="a" d="M59,53.7H0V0H59V53.7Z" transform="translate(0 0)"/></clipPath></defs><g transform="translate(-82)"><path d="M45.375,90.75A45.375,45.375,0,1,1,90.75,45.375,45.426,45.426,0,0,1,45.375,90.75Zm0-88.75A43.375,43.375,0,1,0,88.75,45.375,43.425,43.425,0,0,0,45.375,2Z" transform="translate(82)"/><g transform="translate(98 18)"><path class="a" d="M59,53.7H0V0H59V53.7Z" transform="translate(0 0)"/><g class="b"><path d="M23.457,53.7a5.237,5.237,0,0,1-4.313-8.222l-4.737-3.987A7.543,7.543,0,1,1,7,28.987l-1.226-6.12c-.058.006-.117.014-.173.021a2.671,2.671,0,0,1-.357.032A5.246,5.246,0,1,1,9.682,14.9l6.394-3.191A7.474,7.474,0,0,1,15.49,8.8a7.55,7.55,0,1,1,14.664,2.5l6.505,2.789,1.459-4.109a5.259,5.259,0,1,1,5.662-.815l3.675,5.092a7.545,7.545,0,1,1,4,13.943c-.049,0-.1,0-.145-.007l-.088-.006-.57,5.844a5.22,5.22,0,1,1-1-.1h.009l.569-5.837a7.519,7.519,0,0,1-5.347-3.745l-3.442,1.48A10.343,10.343,0,0,1,28.057,39.143l-2.067,4.748A5.228,5.228,0,0,1,23.457,53.7Zm.006-7.627a1.212,1.212,0,0,0-.844.211c-.211.211-.21.708-.208,1.282a.527.527,0,0,1-.139.355c0,.016.005.032.009.048a.506.506,0,0,1,.236.276,2.017,2.017,0,0,0,.617.888.5.5,0,0,1,.194.409,3.285,3.285,0,0,1-.046.585,1.008,1.008,0,0,1-.8.744A3.311,3.311,0,0,0,21,51.9a4.158,4.158,0,0,0,2.461.8,4.209,4.209,0,0,0,2.462-.8,3.293,3.293,0,0,0-1.485-1.028,1.015,1.015,0,0,1-.8-.752,3,3,0,0,1-.042-.537.576.576,0,0,1,.192-.448,2.013,2.013,0,0,0,.617-.888.5.5,0,0,1,.236-.276l.005-.029,0-.014a.548.548,0,0,1-.139-.382c0-.562.005-1.048-.208-1.26A1.2,1.2,0,0,0,23.463,46.076Zm-.006-1.866a4.251,4.251,0,0,0-4.247,4.245,4.139,4.139,0,0,0,1.045,2.759,4.315,4.315,0,0,1,2.028-1.322.424.424,0,0,0,.035-.147,3.014,3.014,0,0,1-.66-.956,1.025,1.025,0,0,1-.376-.668,1.039,1.039,0,0,1,.13-.757,2.384,2.384,0,0,1,.5-1.785,2.071,2.071,0,0,1,1.535-.506A2.1,2.1,0,0,1,25,45.581a2.38,2.38,0,0,1,.5,1.785,1.143,1.143,0,0,1-.246,1.424,3.027,3.027,0,0,1-.663.961c0,.048.006.093.012.145a4.249,4.249,0,0,1,2.055,1.319,4.224,4.224,0,0,0-3.2-7ZM21.961,32.9h0l-5.634,1.686a7.442,7.442,0,0,1-1.278,6.139l4.739,3.988a5.226,5.226,0,0,1,3.669-1.5,5.035,5.035,0,0,1,1.616.281l2.068-4.748a10.421,10.421,0,0,1-5.18-5.841Zm27.69,3.9a1.232,1.232,0,0,0-.845.21c-.211.212-.21.708-.208,1.282a.519.519,0,0,1-.139.356c0,.014.006.026.007.038l0,.01a.506.506,0,0,1,.238.276,2,2,0,0,0,.617.887.5.5,0,0,1,.193.409V40.3a2.825,2.825,0,0,1-.046.553,1.007,1.007,0,0,1-.8.744,3.332,3.332,0,0,0-1.482,1.028,4.184,4.184,0,0,0,4.921,0A3.347,3.347,0,0,0,50.621,41.6a1.014,1.014,0,0,1-.8-.75,2.9,2.9,0,0,1-.044-.542.579.579,0,0,1,.192-.447,2.01,2.01,0,0,0,.617-.887.5.5,0,0,1,.238-.276l0-.013,0-.013,0-.017a.505.505,0,0,1-.138-.347c0-.581,0-1.083-.208-1.3A1.2,1.2,0,0,0,49.651,36.8ZM8.983,32.488c-1.12,0-1.435.321-1.584.6a4.31,4.31,0,0,0-.223,1.859.542.542,0,0,1-.218.433.661.661,0,0,0,.006.181.865.865,0,0,0,.052.163.5.5,0,0,1,.331.314,3.243,3.243,0,0,0,1,1.43.505.505,0,0,1,.193.407,4.579,4.579,0,0,1-.059.815,1.266,1.266,0,0,1-1.005.931,5.337,5.337,0,0,0-2.521,1.805,6.51,6.51,0,0,0,8.042,0,5.338,5.338,0,0,0-2.523-1.806,1.269,1.269,0,0,1-1-.935,4.23,4.23,0,0,1-.058-.8.524.524,0,0,1,.192-.421,3.253,3.253,0,0,0,1-1.43.5.5,0,0,1,.331-.314.509.509,0,0,0,.054-.171.588.588,0,0,0,.006-.167.547.547,0,0,1-.22-.457,4.207,4.207,0,0,0-.222-1.84C10.4,32.809,10.083,32.49,8.983,32.488Zm40.661,2.444A4.251,4.251,0,0,0,45.4,39.179a4.194,4.194,0,0,0,1.043,2.759,4.292,4.292,0,0,1,2.028-1.322.338.338,0,0,0,.035-.146,3.051,3.051,0,0,1-.66-.957,1.144,1.144,0,0,1-.246-1.425,2.389,2.389,0,0,1,.5-1.785,2.071,2.071,0,0,1,1.536-.5,2.1,2.1,0,0,1,1.555.5,2.387,2.387,0,0,1,.5,1.785,1.033,1.033,0,0,1,.132.748,1.052,1.052,0,0,1-.378.675,3.064,3.064,0,0,1-.663.962c0,.057.006.1.01.139v.006a4.241,4.241,0,0,1,2.055,1.319,4.179,4.179,0,0,0,1.044-2.758A4.251,4.251,0,0,0,49.644,34.933ZM8.959,31.488a2.522,2.522,0,0,1,2.47,1.129,4.552,4.552,0,0,1,.34,2.105,1.258,1.258,0,0,1,.2,1,1.282,1.282,0,0,1-.516.877,4.3,4.3,0,0,1-1.037,1.488,2.2,2.2,0,0,0,.024.364.282.282,0,0,0,.229.188,6.191,6.191,0,0,1,3.064,2.112,6.549,6.549,0,1,0-9.519,0,6.185,6.185,0,0,1,3.064-2.112.286.286,0,0,0,.231-.19,2.658,2.658,0,0,0,.024-.362A4.271,4.271,0,0,1,6.494,36.6a1.429,1.429,0,0,1-.319-1.876,4.584,4.584,0,0,1,.34-2.106A2.494,2.494,0,0,1,8.959,31.488Zm22.787-7.521c-1.7,0-2.18.541-2.4.946a6.14,6.14,0,0,0-.335,2.7.547.547,0,0,1-.284.48,1,1,0,0,0-.01.409.951.951,0,0,0,.143.372.5.5,0,0,1,.4.33,4.731,4.731,0,0,0,1.46,2.093.5.5,0,0,1,.193.41,6.349,6.349,0,0,1-.076,1.094,1.574,1.574,0,0,1-1.254,1.156,7.657,7.657,0,0,0-3.727,2.7.138.138,0,0,1-.035.03l-.006,0-.016.012,0,0a9.332,9.332,0,0,0,11.851,0,.089.089,0,0,0-.014-.012l-.007-.006a.145.145,0,0,1-.035-.032,7.665,7.665,0,0,0-3.729-2.7A1.573,1.573,0,0,1,32.616,32.8a6.3,6.3,0,0,1-.076-1.1.5.5,0,0,1,.192-.407,4.731,4.731,0,0,0,1.46-2.093.5.5,0,0,1,.4-.33.944.944,0,0,0,.143-.379.893.893,0,0,0-.009-.4.5.5,0,0,1-.285-.453v-.064a6.045,6.045,0,0,0-.336-2.666C33.893,24.508,33.413,23.97,31.746,23.967Zm-.015-3.88a9.365,9.365,0,0,0-6.659,15.955,8.671,8.671,0,0,1,4.323-3.067.583.583,0,0,0,.48-.416c.016-.088.03-.389.04-.642a5.732,5.732,0,0,1-1.5-2.136,1.771,1.771,0,0,1-.4-2.41,6.321,6.321,0,0,1,.453-2.93c.529-.99,1.59-1.472,3.244-1.475,1.678,0,2.751.485,3.281,1.474a6.3,6.3,0,0,1,.453,2.93,1.507,1.507,0,0,1,.279,1.292,1.537,1.537,0,0,1-.681,1.12,5.738,5.738,0,0,1-1.5,2.136,6.3,6.3,0,0,0,.041.641.584.584,0,0,0,.478.417,8.682,8.682,0,0,1,4.324,3.066A9.363,9.363,0,0,0,31.73,20.087ZM20.052,15.729,12.847,29.8a7.633,7.633,0,0,1,3.194,3.829l5.633-1.684a10.219,10.219,0,0,1-.314-2.487A10.382,10.382,0,0,1,31.73,19.087a10.272,10.272,0,0,1,3,.445l1.6-4.495-6.575-2.818a7.517,7.517,0,0,1-9.7,3.51ZM8.972,28.717a7.421,7.421,0,0,1,2.987.619l7.205-14.071A7.611,7.611,0,0,1,16.53,12.6L10.13,15.8a5.134,5.134,0,0,1-.7,5.017,5.314,5.314,0,0,1-2.675,1.858L7.983,28.79A7.9,7.9,0,0,1,8.972,28.717Zm42.49-11.841c-1.122,0-1.436.322-1.585.6a4.3,4.3,0,0,0-.222,1.861.536.536,0,0,1-.218.43.547.547,0,0,0,.007.18.812.812,0,0,0,.052.163.5.5,0,0,1,.331.315,3.225,3.225,0,0,0,1,1.429.5.5,0,0,1,.192.409,4.468,4.468,0,0,1-.058.811,1.266,1.266,0,0,1-1.005.933,5.342,5.342,0,0,0-2.523,1.807,6.508,6.508,0,0,0,8.042,0,5.358,5.358,0,0,0-2.523-1.806,1.261,1.261,0,0,1-1-.933,4.374,4.374,0,0,1-.059-.811.5.5,0,0,1,.194-.409,3.207,3.207,0,0,0,1-1.429.5.5,0,0,1,.332-.315.627.627,0,0,0,.052-.168.7.7,0,0,0,.007-.17.572.572,0,0,1-.219-.482,4.1,4.1,0,0,0-.222-1.813C52.876,17.2,52.563,16.878,51.462,16.876ZM51.451,14.1a6.541,6.541,0,0,0-4.762,11.034,6.192,6.192,0,0,1,3.065-2.111.279.279,0,0,0,.232-.191,1.5,1.5,0,0,0,.023-.245v-.117a4.457,4.457,0,0,1-1.038-1.487,1.433,1.433,0,0,1-.318-1.878,4.591,4.591,0,0,1,.34-2.1,2.493,2.493,0,0,1,2.443-1.13,2.524,2.524,0,0,1,2.471,1.13,4.569,4.569,0,0,1,.34,2.1,1.288,1.288,0,0,1,.2,1,1.261,1.261,0,0,1-.516.876,4.281,4.281,0,0,1-1.037,1.488,3.174,3.174,0,0,0,.025.366.273.273,0,0,0,.229.186,6.191,6.191,0,0,1,3.065,2.111A6.54,6.54,0,0,0,51.451,14.1ZM37.244,15.432l-1.577,4.436a10.38,10.38,0,0,1,5.369,5.043l3.407-1.464a7.445,7.445,0,0,1-.541-2.793,7.365,7.365,0,0,1,.335-2.224ZM5.253,15.294c-.755,0-.877.232-.923.319a2.863,2.863,0,0,0-.13,1.156v.019a.521.521,0,0,1-.14.355c0,.014.006.026.007.038l0,.01a.505.505,0,0,1,.237.276,2,2,0,0,0,.616.887.517.517,0,0,1,.194.427,3.194,3.194,0,0,1-.044.562,1.017,1.017,0,0,1-.806.75,3.34,3.34,0,0,0-1.483,1.03,4.19,4.19,0,0,0,4.923,0,3.342,3.342,0,0,0-1.485-1.03,1.016,1.016,0,0,1-.8-.75,3.029,3.029,0,0,1-.044-.569.527.527,0,0,1,.193-.42,1.992,1.992,0,0,0,.616-.887.533.533,0,0,1,.239-.282l0-.011a.165.165,0,0,1,0-.021v-.007a.5.5,0,0,1-.138-.345C6.294,15.584,6.256,15.3,5.253,15.294Zm-.006-1.865a4.224,4.224,0,0,0-3.2,7,4.336,4.336,0,0,1,2.028-1.322.334.334,0,0,0,.035-.146,2.983,2.983,0,0,1-.66-.956A1.143,1.143,0,0,1,3.2,16.585a3.083,3.083,0,0,1,.247-1.444,1.821,1.821,0,0,1,1.788-.848c1.886,0,2.049,1.181,2.055,2.285a1.149,1.149,0,0,1-.246,1.428,3.051,3.051,0,0,1-.664.962c0,.062.006.109.012.148a4.238,4.238,0,0,1,2.055,1.315,4.223,4.223,0,0,0-3.2-7ZM39.06,10.318l-1.481,4.171L44.6,17.5a7.648,7.648,0,0,1,2.039-2.656L42.97,9.755a4.967,4.967,0,0,1-3.91.563ZM23.05,5.02c-1.12,0-1.435.322-1.584.6a4.316,4.316,0,0,0-.222,1.857.544.544,0,0,1-.219.434.669.669,0,0,0,.007.181.632.632,0,0,0,.051.162.5.5,0,0,1,.333.314,3.237,3.237,0,0,0,1,1.43.505.505,0,0,1,.193.408,4.654,4.654,0,0,1-.059.815,1.263,1.263,0,0,1-1.005.93,5.34,5.34,0,0,0-2.521,1.807,6.5,6.5,0,0,0,8.037-.005,5.359,5.359,0,0,0-2.516-1.8,1.261,1.261,0,0,1-1.005-.933,4.332,4.332,0,0,1-.058-.8A.524.524,0,0,1,23.667,10a3.248,3.248,0,0,0,1-1.43A.5.5,0,0,1,25,8.255a.663.663,0,0,0,.052-.171.583.583,0,0,0,.006-.167.52.52,0,0,1-.22-.436,4.307,4.307,0,0,0-.221-1.859C24.464,5.342,24.151,5.022,23.05,5.02Zm-.01-2.771a6.54,6.54,0,0,0-4.761,11.034,6.193,6.193,0,0,1,3.064-2.112.287.287,0,0,0,.232-.19,3,3,0,0,0,.023-.361,4.3,4.3,0,0,1-1.037-1.489,1.265,1.265,0,0,1-.516-.868,1.273,1.273,0,0,1,.2-1.009,4.573,4.573,0,0,1,.339-2.105A2.5,2.5,0,0,1,23.027,4.02,2.523,2.523,0,0,1,25.5,5.149a4.55,4.55,0,0,1,.339,2.105,1.257,1.257,0,0,1,.2,1,1.287,1.287,0,0,1-.517.877,4.693,4.693,0,0,1-1.037,1.517v0a2.388,2.388,0,0,0,.024.33.285.285,0,0,0,.23.188A6.189,6.189,0,0,1,27.8,13.28a6.516,6.516,0,0,0,1.265-1.9,6.443,6.443,0,0,0,.528-2.58A6.557,6.557,0,0,0,23.04,2.249Zm17.3.617a1.216,1.216,0,0,0-.844.211c-.211.211-.21.708-.208,1.282a.528.528,0,0,1-.139.355c0,.016.005.032.009.048a.506.506,0,0,1,.236.275,2.006,2.006,0,0,0,.618.888.506.506,0,0,1,.192.407,3.035,3.035,0,0,1-.044.581,1.019,1.019,0,0,1-.8.751,3.327,3.327,0,0,0-1.486,1.029,4.19,4.19,0,0,0,4.923,0,3.327,3.327,0,0,0-1.485-1.029,1.019,1.019,0,0,1-.8-.751,3.035,3.035,0,0,1-.044-.581.5.5,0,0,1,.192-.407,1.993,1.993,0,0,0,.617-.887.492.492,0,0,1,.237-.276.228.228,0,0,0,0-.026l0-.018a.5.5,0,0,1-.138-.349c0-.58,0-1.08-.209-1.291A1.2,1.2,0,0,0,40.339,2.866ZM40.333,1a4.224,4.224,0,0,0-3.2,7,4.323,4.323,0,0,1,2.029-1.321.4.4,0,0,0,.034-.147,3.038,3.038,0,0,1-.659-.956,1.024,1.024,0,0,1-.377-.668,1.039,1.039,0,0,1,.13-.757,2.389,2.389,0,0,1,.5-1.786,2.071,2.071,0,0,1,1.536-.5,2.092,2.092,0,0,1,1.554.5,2.4,2.4,0,0,1,.5,1.786,1.026,1.026,0,0,1,.131.751,1.041,1.041,0,0,1-.378.672,3.023,3.023,0,0,1-.662.962v.012a1.194,1.194,0,0,0,.011.136A4.224,4.224,0,0,1,43.534,8a4.223,4.223,0,0,0-3.2-7Z" transform="translate(-0.001 0)"/></g></g></g></svg>