<?xml version="1.0" encoding="UTF-8"?>
<svg width="42px" height="40px" viewBox="0 0 42 40" version="1.1" xmlns="http://www.w3.org/2000/svg" xmlns:xlink="http://www.w3.org/1999/xlink">
    <!-- Generator: Sketch 51.3 (57544) - http://www.bohemiancoding.com/sketch -->
    <title>picto_madein</title>
    <desc>Created with Sketch.</desc>
    <defs></defs>
    <g id="Page-1" stroke="none" stroke-width="1" fill="none" fill-rule="evenodd">
        <g id="picto_madein" transform="translate(1.000000, 0.000000)">
            <g id="Fill-132-Clipped" transform="translate(0.000000, 0.481081)" stroke="#000000">
                <path d="M39.7357778,0.420756757 L19.7485556,0.420756757 C14.6585556,0.468324324 10.0268889,2.37697297 6.54244444,5.48562162 C6.29744444,5.70562162 6.07688889,5.91102703 5.86188889,6.12183784 C5.61633333,6.36562162 5.41244444,6.57427027 5.21355556,6.78832432 C4.96522222,7.06075676 4.77855556,7.26994595 4.598,7.484 C4.57244444,7.51535135 4.54855556,7.54724324 4.52244444,7.57751351 C4.35022222,7.78508108 4.18022222,7.99481081 4.01633333,8.20886486 C3.98466667,8.24994595 3.95633333,8.29264865 3.92466667,8.33427027 C3.77022222,8.54021622 3.61688889,8.74832432 3.47022222,8.96021622 C3.433,9.01427027 3.39855556,9.07048649 3.36188889,9.12508108 C3.22466667,9.32778378 3.08911111,9.53102703 2.96022222,9.73859459 C2.91911111,9.804 2.88244444,9.87102703 2.843,9.93643243 C2.72188889,10.136973 2.60133333,10.336973 2.48744444,10.5418378 C2.44355556,10.6202162 2.40466667,10.7018378 2.36188889,10.7807568 C2.25688889,10.9758919 2.15188889,11.1704865 2.05411111,11.3688649 C2.00966667,11.4591351 1.96966667,11.5521081 1.92633333,11.6429189 C1.83577778,11.8342703 1.74466667,12.0245405 1.66022222,12.2191351 C1.61577778,12.3223784 1.57633333,12.4277838 1.53355556,12.5315676 C1.45744444,12.7175135 1.37911111,12.9018378 1.30855556,13.0904865 C1.26466667,13.2083243 1.22688889,13.3283243 1.18466667,13.4472432 C1.12188889,13.6250811 1.05688889,13.8018378 0.999111111,13.9823784 C0.957444444,14.1142703 0.922444444,14.2483243 0.883,14.3807568 C0.833,14.5515676 0.779666667,14.7212973 0.734111111,14.8937297 C0.696333333,15.0396757 0.664666667,15.1877838 0.629111111,15.3348108 C0.590777778,15.4975135 0.549111111,15.6585946 0.514111111,15.8229189 C0.480222222,15.9850811 0.454111111,16.1504865 0.424111111,16.3142703 C0.396333333,16.4661622 0.365222222,16.6158919 0.341333333,16.7688649 C0.313,16.9494054 0.293,17.1315676 0.270222222,17.3131892 C0.252444444,17.4526486 0.230777778,17.5904865 0.215777778,17.7304865 C0.194111111,17.9418378 0.181333333,18.1548108 0.165777778,18.3677838 C0.158555556,18.4807568 0.145777778,18.5931892 0.140222222,18.7067027 C0.122444444,19.0348108 0.114111111,19.364 0.114111111,19.6958919 C0.114111111,19.811027 0.120777778,19.9245405 0.123,20.0391351 L0.114111111,38.9715676 L20.1013333,38.9715676 C25.1907778,38.9234595 29.8224444,37.0153514 33.3074444,33.9067027 C33.553,33.6867027 33.773,33.4812973 33.9874444,33.2704865 C34.2341111,33.0267027 34.438,32.8180541 34.6357778,32.604 C34.8846667,32.3315676 35.0713333,32.1223784 35.2518889,31.9077838 C35.278,31.876973 35.3018889,31.8450811 35.3268889,31.8142703 C35.4996667,31.6072432 35.6696667,31.3975135 35.8335556,31.1834595 C35.8646667,31.1418378 35.8941111,31.0991351 35.9252222,31.0580541 C36.0802222,30.8515676 36.233,30.644 36.3796667,30.4321081 C36.4168889,30.3775135 36.4513333,30.3218378 36.488,30.2672432 C36.6246667,30.0645405 36.7613333,29.8612973 36.8902222,29.6531892 C36.9302222,29.5883243 36.9674444,29.5207568 37.0068889,29.4553514 C37.128,29.2553514 37.2485556,29.0553514 37.3624444,28.8504865 C37.4063333,28.7715676 37.4457778,28.6904865 37.488,28.6115676 C37.593,28.4164324 37.698,28.2218378 37.7963333,28.0229189 C37.8407778,27.9326486 37.8802222,27.8402162 37.923,27.7494054 C38.0135556,27.5580541 38.1052222,27.3677838 38.1896667,27.1731892 C38.2341111,27.0699459 38.273,26.9645405 38.3157778,26.8607568 C38.3924444,26.6748108 38.4707778,26.4899459 38.5413333,26.3012973 C38.5857778,26.184 38.6235556,26.0634595 38.6652222,25.9450811 C38.728,25.7672432 38.793,25.5899459 38.8502222,25.4094054 C38.8924444,25.2780541 38.928,25.144 38.9668889,25.011027 C39.0168889,24.8407568 39.0702222,24.671027 39.1157778,24.4980541 C39.1541111,24.3526486 39.1852222,24.2045405 39.2202222,24.0575135 C39.2591111,23.8948108 39.3013333,23.7331892 39.3352222,23.5694054 C39.3696667,23.4067027 39.3957778,23.2418378 39.4252222,23.0780541 C39.453,22.9261622 39.4846667,22.7758919 39.5085556,22.6229189 C39.5368889,22.4429189 39.5568889,22.2602162 39.5796667,22.0785946 C39.5974444,21.9396757 39.6196667,21.8018378 39.6335556,21.6612973 C39.6557778,21.4504865 39.6691111,21.2375135 39.6835556,21.0245405 C39.6918889,20.9115676 39.7041111,20.7991351 39.7102222,20.6850811 C39.7268889,20.3575135 39.7357778,20.0277838 39.7357778,19.6958919 C39.7357778,19.5812973 39.7285556,19.4677838 39.7268889,19.3531892 L39.7357778,0.420756757 Z" id="Fill-132"></path>
            </g>
            <g id="Fill-146-Clipped" transform="translate(0.000000, 8.589189)" fill="#1A1919" fill-rule="nonzero">
                <path d="M25.9380556,21.2134054 C24.8969444,18.968 23.6191667,16.0171892 23.0225,14.2744865 C22.8980556,13.9128649 22.7958333,13.5652973 22.8991667,13.2858378 C23.0525,12.8723243 23.6230556,12.6631351 24.5963889,12.6631351 L24.6119444,12.6631351 L26.2125,12.6669189 L26.2125,13.700973 C26.2125,14.3263784 26.7358333,14.8355676 27.3786111,14.8355676 C28.0213889,14.8355676 28.5441667,14.3263784 28.5441667,13.700973 L28.5441667,12.6723243 L30.3058333,12.6766486 C30.8402778,12.6777297 31.3869444,12.7052973 31.6819444,13.0177297 C32.0008333,13.355027 31.9713889,13.9398919 31.5891667,14.8577297 C31.1369444,15.9425946 29.7958333,19.1631351 28.7363889,21.3766486 C27.8091667,21.0604324 26.8502778,21.0404324 25.9380556,21.2134054 Z M26.0952778,8.11610811 C25.9997222,8.11610811 25.9191667,8.03772973 25.9191667,7.94475676 L25.9191667,1.13502703 C25.9191667,1.04205405 25.9997222,0.963675676 26.0952778,0.963675676 L28.6619444,0.963675676 C28.7575,0.963675676 28.8386111,1.04205405 28.8386111,1.13502703 L28.8386111,7.94475676 C28.8386111,8.03772973 28.7575,8.11610811 28.6619444,8.11610811 L27.8780556,8.11610811 L27.8780556,12.0220541 L27.8780556,12.3474595 L27.8780556,13.700973 C27.8780556,13.9685405 27.6541667,14.1863784 27.3786111,14.1863784 C27.1030556,14.1863784 26.8786111,13.9685405 26.8786111,13.700973 L26.8786111,12.3431351 L26.8786111,12.0198919 L26.8786111,8.11610811 L26.0952778,8.11610811 Z M10.9925,7.11610811 C10.9791667,6.93718919 10.8169444,6.80313514 10.6363889,6.81502703 C10.4530556,6.828 10.3141667,6.98259459 10.3269444,7.16151351 L10.4508333,8.87772973 L8.26583333,6.75664865 C8.13583333,6.63016216 7.92472222,6.63016216 7.79472222,6.75718919 C7.66416667,6.88421622 7.66472222,7.08962162 7.79527778,7.21556757 L11.2725,10.5912432 L8.54305556,10.5707027 L8.54083333,10.5707027 C8.3575,10.5707027 8.20861111,10.7139459 8.2075,10.8923243 C8.20583333,11.0712432 8.35416667,11.2177297 8.53805556,11.2193514 L11.9452778,11.2452973 L13.1302778,12.3955676 L10.3725,12.4312432 C10.3725,12.4312432 9.95972222,12.4042162 9.85361111,12.3912432 C9.80472222,12.3847568 9.75638889,12.3788108 9.70916667,12.3696216 L9.53694444,12.3285405 C9.49027778,12.3177297 9.44361111,12.3069189 9.39861111,12.2939459 L9.22361111,12.2334054 C9.18194444,12.2193514 9.14027778,12.2052973 9.10027778,12.1896216 L8.92583333,12.1096216 C8.88916667,12.0928649 8.85138889,12.0766486 8.81361111,12.0566486 C8.78805556,12.0436757 8.76361111,12.0285405 8.73916667,12.0139459 L8.64916667,11.9615135 C8.61416667,11.9415135 8.57916667,11.9220541 8.54472222,11.8998919 L8.38361111,11.7852973 C8.35416667,11.7642162 8.32416667,11.7425946 8.29361111,11.7188108 C8.26805556,11.6988108 8.24361111,11.6766486 8.21916667,11.655027 L8.14416667,11.5885405 C8.11583333,11.5647568 8.08805556,11.540973 8.06194444,11.5161081 C8.03416667,11.4896216 8.00916667,11.4615135 7.98305556,11.4339459 L7.92194444,11.3696216 C7.89694444,11.3436757 7.87194444,11.3182703 7.84861111,11.2907027 C7.82416667,11.2620541 7.80138889,11.2323243 7.74916667,11.1642162 L7.65805556,11.0463784 C7.63694444,11.0166486 7.6175,10.9858378 7.59805556,10.9544865 L7.49305556,10.788 C7.47194444,10.7501622 7.4525,10.7112432 7.41305556,10.6323243 L7.35083333,10.5074595 C7.33416667,10.4701622 7.31972222,10.4323243 7.30527778,10.3939459 L7.23694444,10.215027 C7.22138889,10.1696216 7.20916667,10.1225946 7.19694444,10.0755676 L7.1525,9.9107027 C7.14194444,9.86637838 7.13472222,9.82043243 7.11916667,9.72637838 L7.09694444,9.59502703 C7.08916667,9.53016216 7.0725,9.268 7.0725,9.24691892 L7.03138889,6.02151351 L10.3347222,5.97989189 C10.3869444,5.98421622 10.5875,5.98908108 10.6525,5.99502703 L10.8302778,6.01935135 C10.8780556,6.0252973 10.9263889,6.03124324 10.9747222,6.04097297 L11.1425,6.08097297 C11.1902778,6.09178378 11.2386111,6.10259459 11.2841667,6.11610811 L11.4530556,6.17448649 C11.4969444,6.18962162 11.5408333,6.20421622 11.5819444,6.22043243 L11.7569444,6.30043243 C11.7936111,6.31664865 11.8308333,6.33340541 11.8663889,6.35178378 L12.0280556,6.4452973 C12.0636111,6.46583784 12.1002778,6.48637838 12.1369444,6.51016216 C12.1647222,6.528 12.1908333,6.54745946 12.2163889,6.56637838 L12.2925,6.62097297 C12.3241667,6.64367568 12.3563889,6.6652973 12.3886111,6.69124324 C12.4141667,6.71124324 12.4380556,6.73286486 12.4625,6.75448649 L12.6202778,6.89394595 C12.6475,6.91989189 12.6725,6.94691892 12.6975,6.97394595 L12.7613889,7.04205405 C12.7858333,7.06691892 12.8102778,7.09178378 12.8330556,7.11827027 C12.8580556,7.14745946 12.8808333,7.17772973 12.9347222,7.24745946 L13.0236111,7.36205405 C13.0475,7.39610811 13.0697222,7.43178378 13.0919444,7.468 L13.1897222,7.62259459 C13.2119444,7.66097297 13.2313889,7.70097297 13.2691667,7.77772973 L13.3308333,7.89989189 C13.3475,7.93827027 13.3625,7.97772973 13.3780556,8.01718919 L13.4447222,8.19232432 C13.4613889,8.24205405 13.4741667,8.29340541 13.4880556,8.34475676 L13.5302778,8.49881081 C13.5408333,8.54367568 13.5475,8.58962162 13.5552778,8.63556757 L13.5852778,8.81664865 C13.5908333,8.86367568 13.5936111,8.91178378 13.5991667,9.00637838 L13.6447222,11.9782703 L11.1625,9.56908108 C11.1630556,9.55881081 11.1675,9.55016216 11.1669444,9.53989189 L10.9925,7.11610811 Z M16.0086111,10.3474595 C16.0130556,10.3128649 16.0175,10.2782703 16.0380556,10.1917838 L16.0547222,10.1258378 C16.0619444,10.0966486 16.0680556,10.0669189 16.0930556,9.99448649 L16.3547222,9.46854054 L16.9580556,8.87286486 C16.9852778,8.85502703 17.0136111,8.83881081 17.0413889,8.82205405 L17.5441667,8.59124324 C17.5747222,8.58151351 17.6058333,8.57394595 17.6713889,8.55772973 L17.7608333,8.53394595 C17.7941667,8.52691892 17.8280556,8.52205405 17.8919444,8.51232432 L17.9847222,8.49718919 C18.0319444,8.49178378 18.2191667,8.48097297 18.2313889,8.48097297 L20.5108333,8.45286486 L20.5402778,10.6604324 C20.5397222,10.6912432 20.5336111,10.8307027 20.5230556,10.9198919 L20.5102778,11.0042162 C20.5069444,11.0323243 20.5030556,11.0604324 20.4975,11.088 L20.4669444,11.2063784 C20.4602778,11.2355676 20.4536111,11.2652973 20.4275,11.3388108 C20.2247222,11.7469189 20.0052778,12.1961081 19.5730556,12.4252973 C19.2275,12.6085405 18.9291667,12.7701622 18.5375,12.835027 C18.5019444,12.8388108 18.4663889,12.8404324 18.4308333,12.8425946 L16.4602778,12.8723243 L18.0719444,11.3317838 L19.6375,11.2712432 C19.8213889,11.2642162 19.9647222,11.1134054 19.9575,10.9344865 C19.9508333,10.7555676 19.7880556,10.6182703 19.6113889,10.6231351 L18.7791667,10.655027 L19.9547222,9.53178378 C20.0863889,9.40637838 20.0880556,9.20097297 19.9586111,9.07340541 C19.8297222,8.9452973 19.6197222,8.94313514 19.4875,9.06908108 L17.3358333,11.1263784 L17.3458333,9.67881081 C17.3475,9.49989189 17.1991667,9.35394595 17.0147222,9.35232432 C16.8558333,9.35178378 16.6808333,9.49556757 16.6797222,9.67448649 L16.6652778,11.7674595 L16.0036111,12.3993514 L15.9802778,10.695027 C15.9802778,10.695027 16.0002778,10.4128649 16.0086111,10.3474595 Z M36.1947222,20.2858378 C33.8847222,19.2825946 31.3480556,20.3285405 29.7619444,21.8593514 C29.6263889,21.775027 29.4891667,21.6988108 29.3502778,21.6296216 C30.4169444,19.4004324 31.7547222,16.1858378 32.2063889,15.1015135 C32.5152778,14.3604324 32.8480556,13.2934054 32.1725,12.5782703 C31.6952778,12.0734054 30.9597222,12.0296216 30.3075,12.0274595 L28.5441667,12.0236757 L28.5441667,8.76475676 L28.6619444,8.76475676 C29.1269444,8.76475676 29.5047222,8.39718919 29.5047222,7.94475676 L29.5047222,1.13502703 C29.5047222,0.683135135 29.1269444,0.315027027 28.6619444,0.315027027 L26.0952778,0.315027027 C25.6302778,0.315027027 25.2530556,0.683135135 25.2530556,1.13502703 L25.2530556,7.94475676 C25.2530556,8.39718919 25.6302778,8.76475676 26.0952778,8.76475676 L26.2125,8.76475676 L26.2125,12.0182703 L24.6136111,12.0144865 C24.1308333,12.0161081 22.6625,12.0101622 22.2719444,13.0658378 C22.0963889,13.5404324 22.2336111,14.0242162 22.3897222,14.4798919 C22.9847222,16.2155676 24.2402778,19.1231351 25.2797222,21.3701622 C24.6375,21.5593514 24.0308333,21.835027 23.4930556,22.1582703 C22.9969444,21.375027 22.2847222,20.7669189 21.4136111,20.3885405 C19.5908333,19.5966486 17.4397222,20.0242162 16.0786111,21.4204324 C15.5097222,21.0842162 14.9086111,20.8128649 14.2869444,20.6047568 C14.2902778,20.588 14.2980556,20.5723243 14.2980556,20.5544865 L14.2980556,15.0107027 C14.3552778,14.9934054 14.4102778,14.9658378 14.4530556,14.9177297 L15.6713889,13.5317838 L18.3302778,13.4993514 C18.3580556,13.4988108 18.3858333,13.4961081 18.4675,13.4901622 C18.5169444,13.4874595 18.5658333,13.4847568 18.6158333,13.4788108 L18.7019444,13.4658378 L18.7619444,13.4561081 C18.8097222,13.4490811 18.8575,13.4420541 18.9052778,13.4317838 L18.9908333,13.4096216 L19.0569444,13.3928649 C19.0986111,13.3820541 19.1408333,13.3712432 19.1852778,13.3571892 L19.3219444,13.308 C19.3641667,13.2928649 19.4058333,13.2777297 19.4513889,13.2588108 L19.5291667,13.2225946 L19.5897222,13.1934054 C19.6286111,13.1755676 19.6669444,13.1571892 19.7030556,13.1371892 L19.7819444,13.0912432 L19.8347222,13.0593514 C19.8708333,13.0377297 19.9069444,13.0166486 19.9413889,12.9934054 C19.9697222,12.9744865 19.9969444,12.9544865 20.0669444,12.9025946 C20.0997222,12.8788108 20.1330556,12.8544865 20.1630556,12.8296216 C20.1925,12.8058378 20.2202778,12.7804324 20.2791667,12.7269189 C20.3091667,12.7004324 20.3391667,12.6744865 20.3697222,12.6447568 C20.3963889,12.6182703 20.4213889,12.5901622 20.4469444,12.5625946 L20.4852778,12.520973 L20.5558333,12.4420541 C20.5808333,12.4128649 20.6036111,12.3820541 20.6269444,12.3507027 L20.6597222,12.3074595 L20.7202778,12.2258378 C20.7436111,12.1917838 20.7652778,12.1561081 20.7869444,12.120973 L20.8186111,12.0685405 L20.8652778,11.9907027 C20.8858333,11.9534054 20.9041667,11.9144865 20.9452778,11.8301622 L20.9852778,11.7452973 C21.0002778,11.7096216 21.0141667,11.6728649 21.0269444,11.6361081 L21.0541667,11.5625946 L21.0802778,11.488 C21.0941667,11.4442162 21.1058333,11.3988108 21.1291667,11.3052973 L21.1508333,11.2155676 C21.1591667,11.1744865 21.1652778,11.1323243 21.1713889,11.0901622 L21.1813889,11.0188108 L21.1930556,10.9355676 C21.1991667,10.880973 21.2063889,10.6971892 21.2063889,10.6296216 L21.1686111,7.79610811 L18.1791667,7.83340541 C18.1791667,7.83340541 17.9619444,7.84637838 17.9058333,7.85286486 L17.8202778,7.86637838 L17.7602778,7.87556757 C17.7125,7.88313514 17.6647222,7.8907027 17.6163889,7.90097297 L17.5308333,7.92259459 L17.4702778,7.93827027 C17.4263889,7.94908108 17.3830556,7.96043243 17.3386111,7.97448649 L17.2491667,8.00637838 L17.1913889,8.02745946 C17.1513889,8.04151351 17.1102778,8.05610811 17.0725,8.07232432 L16.9913889,8.11016216 L16.9319444,8.13881081 C16.8936111,8.15664865 16.8547222,8.17502703 16.8202778,8.19394595 C16.7908333,8.20962162 16.7625,8.22691892 16.6975,8.26637838 C16.6580556,8.28962162 16.6186111,8.31340541 16.5802778,8.33881081 L16.5008333,8.39610811 L16.4469444,8.43556757 C16.4169444,8.45718919 16.3875,8.47881081 16.3569444,8.50367568 L16.2852778,8.56691892 L16.2313889,8.61448649 L16.0797222,8.76421622 L16.0325,8.81502703 C16.0102778,8.83881081 15.9880556,8.86313514 15.9647222,8.8907027 L15.9030556,8.9707027 L15.8569444,9.03124324 L15.8013889,9.10637838 C15.7775,9.14097297 15.7558333,9.17664865 15.7119444,9.24908108 C15.6936111,9.27881081 15.6747222,9.308 15.6569444,9.34043243 C15.6363889,9.37772973 15.6180556,9.41664865 15.5769444,9.50205405 L15.5363889,9.58583784 C15.5213889,9.62205405 15.5080556,9.65935135 15.4941667,9.69610811 L15.4669444,9.77124324 L15.4413889,9.84367568 C15.4275,9.888 15.4163889,9.93286486 15.3930556,10.028 L15.3708333,10.1166486 C15.3608333,10.1647568 15.3541667,10.2139459 15.3452778,10.2798919 C15.3402778,10.3166486 15.3152778,10.6490811 15.3152778,10.7025946 L15.3458333,12.980973 C15.2908333,12.9988108 15.2386111,13.0258378 15.1986111,13.0712432 L14.2980556,14.0961081 L14.2752778,9.11448649 C14.2747222,9.08043243 14.2713889,9.04637838 14.2680556,9.01286486 L14.2619444,8.92421622 C14.2586111,8.86151351 14.2547222,8.79935135 14.2475,8.74259459 C14.2425,8.70151351 14.2358333,8.66097297 14.2286111,8.62097297 L14.2136111,8.53556757 C14.2041667,8.47610811 14.1941667,8.41664865 14.1813889,8.35881081 C14.1725,8.31935135 14.1619444,8.28151351 14.1502778,8.24313514 L14.1336111,8.18313514 C14.1169444,8.11935135 14.0997222,8.05556757 14.0786111,7.99178378 C14.0669444,7.95664865 14.0530556,7.92151351 14.0397222,7.88745946 L14.0030556,7.79286486 C13.9836111,7.74205405 13.9641667,7.69178378 13.9419444,7.64151351 C13.9263889,7.60637838 13.9091667,7.57286486 13.8913889,7.53935135 L13.8519444,7.45989189 C13.8263889,7.40908108 13.8008333,7.35827027 13.7736111,7.30854054 C13.7519444,7.27178378 13.7291667,7.23664865 13.7063889,7.20151351 L13.6625,7.13286486 C13.6336111,7.08583784 13.6047222,7.03935135 13.5719444,6.99394595 C13.5480556,6.95935135 13.5219444,6.92637838 13.4958333,6.89394595 L13.4391667,6.82097297 C13.4080556,6.78043243 13.3775,6.74043243 13.3441667,6.70205405 C13.3130556,6.66583784 13.2802778,6.63124324 13.2469444,6.59718919 L13.1930556,6.53989189 C13.1591667,6.50367568 13.1252778,6.46691892 13.0880556,6.43178378 C13.0547222,6.39935135 13.0191667,6.36908108 12.9841667,6.33827027 L12.9113889,6.27502703 C12.8775,6.2452973 12.8436111,6.21502703 12.8102778,6.18908108 C12.7691667,6.15610811 12.7263889,6.12583784 12.6830556,6.09502703 L12.6491667,6.07124324 L12.6186111,6.04908108 C12.5813889,6.02205405 12.5441667,5.99448649 12.5069444,5.9707027 C12.4602778,5.94043243 12.4119444,5.91232432 12.3636111,5.8852973 L12.2913889,5.84259459 C12.2552778,5.82151351 12.2202778,5.80043243 12.1825,5.78097297 C12.1347222,5.75610811 12.0852778,5.73340541 12.0369444,5.71124324 L11.9458333,5.67016216 C11.9108333,5.65340541 11.8758333,5.63718919 11.8380556,5.62151351 C11.7830556,5.59935135 11.7275,5.58043243 11.6708333,5.56151351 L11.5913889,5.53394595 C11.5541667,5.52043243 11.5175,5.50745946 11.4791667,5.49556757 C11.4191667,5.47827027 11.3575,5.46367568 11.2963889,5.44962162 L11.2163889,5.4307027 C11.1786111,5.42097297 11.1408333,5.41178378 11.1036111,5.40421622 C11.0425,5.39232432 10.9802778,5.38421622 10.9180556,5.37610811 C10.9180556,5.37610811 10.7530556,5.35232432 10.7152778,5.34908108 C10.6391667,5.34205405 10.3947222,5.328 10.2908333,5.33124324 L6.35638889,5.38097297 L6.4075,9.30854054 C6.4075,9.30854054 6.42638889,9.59772973 6.43527778,9.6707027 C6.43972222,9.70962162 6.44638889,9.74854054 6.45361111,9.78691892 L6.46861111,9.87502703 C6.47861111,9.93448649 6.48805556,9.99394595 6.50138889,10.0512432 C6.50972222,10.0901622 6.52083333,10.1285405 6.53194444,10.1669189 L6.55138889,10.2366486 C6.5675,10.2982703 6.58361111,10.3593514 6.60361111,10.4177297 C6.61583333,10.4534054 6.62916667,10.488 6.66027778,10.5669189 L6.67972222,10.6177297 C6.69861111,10.6690811 6.71805556,10.7204324 6.74027778,10.7685405 C6.75638889,10.8036757 6.77361111,10.8377297 6.79083333,10.8712432 L6.8325,10.9539459 C6.85694444,11.0031351 6.88194444,11.0528649 6.90972222,11.1020541 C6.92916667,11.1355676 6.94972222,11.1685405 6.99805556,11.2431351 L7.02805556,11.2912432 C7.05527778,11.3339459 7.08194444,11.3766486 7.10972222,11.4155676 C7.13361111,11.4496216 7.15916667,11.4825946 7.18527778,11.515027 L7.24361111,11.5890811 C7.27416667,11.6301622 7.30527778,11.6701622 7.33861111,11.7090811 C7.37027778,11.7447568 7.40305556,11.7793514 7.43583333,11.8134054 L7.48805556,11.8685405 C7.5225,11.9058378 7.55694444,11.9425946 7.59305556,11.9777297 C7.62861111,12.0117838 7.66527778,12.0431351 7.70305556,12.075027 L7.76972222,12.1339459 C7.80361111,12.1642162 7.83805556,12.1939459 7.87194444,12.220973 C7.91138889,12.2523243 7.95194444,12.2815135 7.99305556,12.3101622 L8.07416667,12.3685405 C8.10805556,12.3934054 8.14194444,12.4177297 8.17638889,12.4404324 C8.22083333,12.4690811 8.26638889,12.495027 8.31194444,12.520973 L8.38972222,12.5663784 C8.42638889,12.5885405 8.46361111,12.6101622 8.49972222,12.6290811 C8.5475,12.6539459 8.59694444,12.6766486 8.64583333,12.6988108 L8.73138889,12.7377297 C8.76805556,12.755027 8.80472222,12.7723243 8.84305556,12.788 C8.89638889,12.8096216 8.95083333,12.828 9.00527778,12.8463784 L9.09416667,12.8771892 C9.12972222,12.8901622 9.16638889,12.9025946 9.20361111,12.9139459 C9.26194444,12.9312432 9.3225,12.9458378 9.3825,12.9593514 L9.46694444,12.9798919 C9.50416667,12.9890811 9.54083333,12.9982703 9.58027778,13.0058378 C9.64138889,13.0177297 9.70305556,13.0258378 9.80305556,13.0388108 C9.85527778,13.0463784 10.3258333,13.0788108 10.3258333,13.0788108 L10.3775,13.0788108 L13.6319444,13.0377297 L13.6319444,20.4128649 C12.8730556,20.2193514 12.0897222,20.1161081 11.2963889,20.1161081 C10.4425,20.1161081 4.26472222,20.200973 0.0813888889,22.480973 L0.0813888889,23.2501622 C3.32916667,21.3377297 8.32805556,20.7647568 11.2963889,20.7647568 C12.9525,20.7647568 14.5647222,21.2312432 15.9580556,22.1128649 L16.2058333,22.2696216 L16.3952778,22.0485405 C17.5491667,20.7069189 19.5013889,20.2674595 21.1413889,20.980973 C21.9852778,21.3474595 22.6558333,21.9647568 23.0808333,22.7669189 L23.2541667,23.0923243 L23.5652778,22.8858378 C25.1886111,21.8069189 27.6302778,21.1517838 29.6108333,22.5436757 L29.8497222,22.7117838 L30.0502778,22.5020541 C31.4552778,21.0339459 33.8163889,19.9631351 35.9225,20.8777297 C36.2558333,21.0225946 36.6425,21.2804324 36.9336111,21.4890811 C36.9336111,21.4890811 37.2902778,20.9020541 37.2902778,20.8998919 C36.9686111,20.6734054 36.5602778,20.4447568 36.1947222,20.2858378 Z" id="Fill-146"></path>
            </g>
        </g>
    </g>
</svg>