<svg xmlns="http://www.w3.org/2000/svg" xmlns:xlink="http://www.w3.org/1999/xlink" viewBox="0 0 90.75 90.75"><defs><style>.a{fill:none;}.b{fill:#d8127d;}.c{clip-path:url(#a);}.d{clip-path:url(#b);}.e{clip-path:url(#c);}</style><clipPath id="a"><path class="a" d="M32.534,0H0V30.464H32.534V0Z" transform="translate(0.732 0.087)"/></clipPath><clipPath id="b"><path class="a" d="M49,20.974V0H0V20.974Z" transform="translate(0 0.026)"/></clipPath><clipPath id="c"><path class="a" d="M0,53H53V0H0Z" transform="translate(21 18)"/></clipPath></defs><path class="b" d="M45.375,90.75A45.375,45.375,0,1,1,90.75,45.375,45.426,45.426,0,0,1,45.375,90.75Zm0-88.75A43.375,43.375,0,1,0,88.75,45.375,43.425,43.425,0,0,0,45.375,2Z"/><g transform="translate(31 18)"><path class="a" d="M32.534,0H0V30.464H32.534V0Z" transform="translate(0.732 0.087)"/><g class="c"><path class="b" d="M16.291,30.464h0l-.645-.673-.069-.072C13.883,27.958,5.338,19.08,3.326,17.2a9.771,9.771,0,0,1-1-13.674A9.7,9.7,0,0,1,9.522,0a7.927,7.927,0,0,1,6.746,4.1,7.981,7.981,0,0,1,6.8-4.1,9.726,9.726,0,0,1,7.2,3.528,9.9,9.9,0,0,1-1,13.66C27.052,19.313,17.031,29.7,16.94,29.792l-.648.672ZM9.522,1.771A7.983,7.983,0,0,0,3.65,4.718a8,8,0,0,0,.906,11.191C6.573,17.8,14.688,26.226,16.295,27.9c3.636-3.762,10-10.32,11.73-11.98a8.13,8.13,0,0,0,.909-11.2,7.881,7.881,0,0,0-5.869-2.941c-2.541,0-4.826,1.783-5.963,4.654l-.833,2.1-.832-2.1C14.3,3.554,12.031,1.771,9.522,1.771Z" transform="translate(0.732 0.087)"/></g></g><g transform="translate(25 47)"><path class="a" d="M49,20.974V0H0V20.974Z" transform="translate(0 0.026)"/><g class="d"><path class="b" d="M13.363,20.974H0V3.918l.348-.263C.546,3.506,5.239,0,9.305,0a5.18,5.18,0,0,1,3.156.962,8.62,8.62,0,0,0,5.106,1.613h3.474a7.7,7.7,0,0,1,6.4,3.266,2.863,2.863,0,0,1,.538,2.921c2.911-.049,4.79-.313,5.743-.811l7.682-4.613A10.374,10.374,0,0,1,45.8,1.83a3.224,3.224,0,0,1,2.714,1.631,2.533,2.533,0,0,1-.463,3.458l-.022.016-13.5,10.328a5.441,5.441,0,0,1-2.942,1.444,6.072,6.072,0,0,1-1.226.139L18.813,20.569A37.064,37.064,0,0,1,13.363,20.974ZM9.279,1.743c-2.361,0-5.514,1.64-7.5,3.045V19.224H13.363a35.17,35.17,0,0,0,5.182-.385L30.291,17.1a4.575,4.575,0,0,0,.96-.106,3.759,3.759,0,0,0,2.079-1.022l.068-.058L46.926,5.564a.8.8,0,0,0,.142-1.082c-.381-.524-.657-.9-1.333-.9a9.092,9.092,0,0,0-3.448,1.279L34.609,9.471c-1.771.925-4.894,1.049-7.715,1.049-.7,0-1.459-.008-2.449-.027l-.23,0-.106,0-.14,0c-.141.005-.286.008-.431.008-.231,0-.462-.007-.687-.021l.059-1.749c.279,0,.583,0,.988.011,1.046-.045,2.213-.28,2.462-.7.126-.213-.022-.669-.4-1.218a5.909,5.909,0,0,0-4.924-2.49H17.567A10.426,10.426,0,0,1,11.39,2.359,3.467,3.467,0,0,0,9.279,1.743Z" transform="translate(0 0.026)"/></g></g><path class="a" d="M0,53H53V0H0Z" transform="translate(21 18)"/><g class="e"><path class="b" d="M6,23H0V0H6V23ZM1.714,1.769V21.231H4.286V1.769Z" transform="translate(21 48)"/><path class="b" d="M.891,4A.849.849,0,0,1,0,3.2C0,1.2,1.665,0,4.453,0h8.656A.849.849,0,0,1,14,.8a.849.849,0,0,1-.891.8H4.453c-2.672,0-2.672,1.2-2.672,1.6A.849.849,0,0,1,.891,4" transform="translate(35 56)"/></g></svg>