<svg id="icon-black-yellow-box" xmlns="http://www.w3.org/2000/svg" xmlns:xlink="http://www.w3.org/1999/xlink" viewBox="0 0 60 60">
  <defs>
    <style>
      .cls-1 {
        fill: none;
      }

      .cls-2 {
        fill: #fff101;
      }

      .cls-3 {
        clip-path: url(#clip-path);
      }
    </style>
    <clipPath id="clip-path">
      <path id="Clip_14" data-name="Clip 14" class="cls-1" d="M19.98,0H0V47.235H39.961V0H0V28.246H39.961V0Z" transform="translate(0 0.237)"/>
    </clipPath>
  </defs>
  <path id="Fill_5" data-name="Fill 5" class="cls-2" d="M30,60A30,30,0,1,1,60,30,30.034,30.034,0,0,1,30,60ZM30,1.322A28.678,28.678,0,1,0,58.677,30,28.71,28.71,0,0,0,30,1.322Z"/>
  <g id="Page_1" data-name="Page 1" transform="translate(9 3)">
    <path id="Fill_1" data-name="Fill 1" class="cls-2" d="M18.666,39.56a1.24,1.24,0,0,1-1.007-.476L.242,15.338a1.383,1.383,0,0,1,.232-1.827L17.659.248A1.279,1.279,0,0,1,18.419,0,1.332,1.332,0,0,1,19.44.486L36.857,24.233a1.066,1.066,0,0,1,.232.953,1.912,1.912,0,0,1-.464.874L19.363,39.322A1.06,1.06,0,0,1,18.666,39.56ZM18.124,3.108,2.951,14.782,18.9,36.464,34.07,24.71,18.124,3.108Z" transform="translate(1.954 7.912)"/>
    <path id="Fill_3" data-name="Fill 3" class="cls-2" d="M5.127,11.868a1.277,1.277,0,0,1-1.02-.462l-3.843-5A1,1,0,0,1,.03,5.487,1.824,1.824,0,0,1,.5,4.641L6.461.259A1.007,1.007,0,0,1,7.156,0,1.043,1.043,0,0,1,7.4.029a1.872,1.872,0,0,1,.862.462l3.843,5a1,1,0,0,1,.236.923,1.83,1.83,0,0,1-.471.846L5.912,11.638A1.346,1.346,0,0,1,5.127,11.868ZM7.01,3.027h0L3.088,5.948l2.275,3L9.284,6.026l-2.274-3Z" transform="translate(11.07 14.505)"/>
    <path id="Fill_5-2" data-name="Fill 5" class="cls-2" d="M7.8,11.209a1.246,1.246,0,0,1-1-.46L.241,2A1.312,1.312,0,0,1,.472.24,1.328,1.328,0,0,1,2.245.47l6.63,8.745a1.312,1.312,0,0,1-.231,1.764,1.764,1.764,0,0,1-.848.23" transform="translate(23.443 22.418)"/>
    <path id="Fill_7" data-name="Fill 7" class="cls-2" d="M7.874,11.209a1.246,1.246,0,0,1-1-.46L.241,2A1.312,1.312,0,0,1,.472.24,1.328,1.328,0,0,1,2.245.47l6.63,8.745a1.312,1.312,0,0,1-.231,1.764,1.307,1.307,0,0,1-.771.23" transform="translate(20.187 24.396)"/>
    <path id="Fill_9" data-name="Fill 9" class="cls-2" d="M7.874,11.209a1.246,1.246,0,0,1-1-.46L.241,2A1.312,1.312,0,0,1,.472.24,1.328,1.328,0,0,1,2.245.47l6.63,8.745a1.312,1.312,0,0,1-.231,1.764,1.73,1.73,0,0,1-.771.23" transform="translate(17.582 27.033)"/>
    <path id="Fill_11" data-name="Fill 11" class="cls-2" d="M13.734,19.78a1.227,1.227,0,0,1-1-.478L.241,2.083A1.4,1.4,0,0,1,.472.249,1.293,1.293,0,0,1,2.246.488l12.491,17.14a1.4,1.4,0,0,1-.231,1.834,1.964,1.964,0,0,1-.771.319" transform="translate(8.466 21.099)"/>
    <g id="Group_15" data-name="Group 15">
      <path id="Clip_14-2" data-name="Clip 14" class="cls-1" d="M19.98,0H0V47.235H39.961V0H0V28.246H39.961V0Z" transform="translate(0 0.237)"/>
      <g id="Group_15-2" data-name="Group 15" class="cls-3">
        <path id="Fill_13" data-name="Fill 13" d="M33.487,28.246a1.155,1.155,0,0,1-.854-.316,1.283,1.283,0,0,1-.078-1.82L36.9,21.363,17.492,2.927,2.9,19.938l1.4,1.9a1.376,1.376,0,0,1-.233,1.82,1.315,1.315,0,0,1-1.786-.237L.255,20.73a1.219,1.219,0,0,1,.078-1.582L16.483.4a1.237,1.237,0,0,1,.854-.4,1.339,1.339,0,0,1,.932.316L39.543,20.492a1.283,1.283,0,0,1,.078,1.82l-5.2,5.618a1.879,1.879,0,0,1-.932.316" transform="translate(0 0.237)"/>
      </g>
    </g>
  </g>
</svg>
