<svg xmlns="http://www.w3.org/2000/svg" viewBox="0 0 19.5 19.491">
  <defs>
    <style>
      .cls-1 {
        fill: #777;
      }
    </style>
  </defs>
  <g id="Groupe_56" data-name="Groupe 56" transform="translate(0 0.001)">
    <path id="Tracé_3" data-name="Tracé 3" class="cls-1" d="M18.75,14.01a.755.755,0,0,0-.75.75v2.86a.376.376,0,0,1-.36.38H1.87a.376.376,0,0,1-.37-.37h0V14.75A.755.755,0,0,0,.75,14a.755.755,0,0,0-.75.75v2.86a1.889,1.889,0,0,0,1.87,1.88H17.63a1.887,1.887,0,0,0,1.87-1.87V14.75A.753.753,0,0,0,18.75,14.01Z"/>
    <path id="Tracé_4" data-name="Tracé 4" class="cls-1" d="M5.28,6a.781.781,0,0,0,.53-.25L9.03,2.53V14.25a.75.75,0,0,0,1.5,0V2.57l3.16,3.18a.75.75,0,0,0,1.06-1.06L10.31.22h0A.738.738,0,0,0,9.75,0h0a.749.749,0,0,0-.53.22L4.75,4.75a.75.75,0,0,0,.53,1.28Z"/>
  </g>
</svg>
