<svg id="Page_1" data-name="Page 1" xmlns="http://www.w3.org/2000/svg" xmlns:xlink="http://www.w3.org/1999/xlink" viewBox="0 0 40 40">
  <defs>
    <style>
      .cls-1 {
        fill: none;
      }

      .cls-2 {
        stroke: #fff;
        stroke-miterlimit: 10;
      }

      .cls-3 {
        clip-path: url(#clip-path);
      }
    </style>
    <clipPath id="clip-path">
      <path id="Clip_14" data-name="Clip 14" class="cls-1" d="M13.487,0H0V31.49H26.973V0H0V18.831H26.973V0Z" transform="translate(0 0.158)"/>
    </clipPath>
  </defs>
  <path id="Fill_5" data-name="Fill 5" d="M20,40A20,20,0,1,1,40,20,20.022,20.022,0,0,1,20,40ZM20,.881A19.119,19.119,0,1,0,39.118,20,19.14,19.14,0,0,0,20,.881Z"/>
  <g id="Page_1-2" data-name="Page 1" transform="translate(6.154 2.198)">
    <path id="Fill_1" data-name="Fill 1" class="cls-2" d="M12.6,26.374a.842.842,0,0,1-.679-.318L.163,10.225A.913.913,0,0,1,.32,9.007L11.92.166A.87.87,0,0,1,12.432,0a.906.906,0,0,1,.69.324L24.879,16.155a.705.705,0,0,1,.157.635,1.267,1.267,0,0,1-.313.582L13.07,26.215A.725.725,0,0,1,12.6,26.374Zm-.365-24.3h0L1.992,9.854,12.756,24.309,23,16.473,12.234,2.072Z" transform="translate(1.319 5.275)"/>
    <path id="Fill_3" data-name="Fill 3" class="cls-2" d="M3.461,7.912a.866.866,0,0,1-.688-.307L.179,4.273A.657.657,0,0,1,.02,3.658a1.219,1.219,0,0,1,.318-.564L4.361.173A.683.683,0,0,1,4.83,0,.711.711,0,0,1,5,.019a1.28,1.28,0,0,1,.582.308L8.173,3.658a.659.659,0,0,1,.159.615,1.211,1.211,0,0,1-.318.563L3.991,7.758A.912.912,0,0,1,3.461,7.912Zm1.27-5.894L2.084,3.965l1.535,2L6.267,4.017Z" transform="translate(7.473 9.67)"/>
    <path id="Fill_5-2" data-name="Fill 5" class="cls-2" d="M5.263,7.473a.845.845,0,0,1-.677-.307L.163,1.336A.867.867,0,0,1,.319.16a.9.9,0,0,1,1.2.153l4.476,5.83a.867.867,0,0,1-.156,1.176,1.2,1.2,0,0,1-.572.153" transform="translate(15.824 14.945)"/>
    <path id="Fill_7" data-name="Fill 7" class="cls-2" d="M5.315,7.473a.845.845,0,0,1-.677-.307L.163,1.336A.867.867,0,0,1,.319.16a.9.9,0,0,1,1.2.153l4.476,5.83a.867.867,0,0,1-.156,1.176.89.89,0,0,1-.52.153" transform="translate(13.626 16.264)"/>
    <path id="Fill_9" data-name="Fill 9" class="cls-2" d="M5.315,7.473a.845.845,0,0,1-.677-.307L.163,1.336A.867.867,0,0,1,.319.16a.9.9,0,0,1,1.2.153l4.476,5.83a.867.867,0,0,1-.156,1.176,1.179,1.179,0,0,1-.52.153" transform="translate(11.868 18.022)"/>
    <path id="Fill_11" data-name="Fill 11" class="cls-2" d="M9.271,13.187a.832.832,0,0,1-.677-.319L.163,1.388A.926.926,0,0,1,.319.166a.88.88,0,0,1,1.2.159L9.947,11.752a.926.926,0,0,1-.156,1.222,1.335,1.335,0,0,1-.52.213" transform="translate(5.714 14.066)"/>
    <g id="Group_15" data-name="Group 15">
      <path id="Clip_14-2" data-name="Clip 14" class="cls-1" d="M13.487,0H0V31.49H26.973V0H0V18.831H26.973V0Z" transform="translate(0 0.158)"/>
      <g id="Group_15-2" data-name="Group 15" class="cls-3">
        <path id="Fill_13" data-name="Fill 13" d="M22.6,18.831a.785.785,0,0,1-.576-.211.848.848,0,0,1-.052-1.213l2.935-3.165-13.1-12.29L1.954,13.292,2.9,14.558a.909.909,0,0,1-.157,1.213.9.9,0,0,1-1.205-.158L.172,13.82a.805.805,0,0,1,.052-1.055l10.9-12.5A.839.839,0,0,1,11.7,0a.911.911,0,0,1,.629.211l14.36,13.451a.848.848,0,0,1,.052,1.213L23.232,18.62a1.279,1.279,0,0,1-.629.211" transform="translate(0 0.158)"/>
      </g>
    </g>
  </g>
</svg>
