<?xml version="1.0" encoding="utf-8"?>
<!-- Generator: Adobe Illustrator 23.0.4, SVG Export Plug-In . SVG Version: 6.00 Build 0)  -->
<svg version="1.1" xmlns="http://www.w3.org/2000/svg" xmlns:xlink="http://www.w3.org/1999/xlink" x="0px" y="0px"
	 viewBox="0 0 100 125" style="enable-background:new 0 0 100 125;" xml:space="preserve">
<g id="Calque_2">
</g>
<g id="Calque_1">
	<path d="M65.5,40.6h16.6c1.2,0,2.2-1,2.2-2.2V17.3c0-1.2-1-2.2-2.2-2.2H65.5c-1.2-0.1-2.2,0.9-2.2,2.1v8.4H50.8
		c-1.2,0-2.2,1-2.2,2.2v32.5h-8.9v-6.5c0-1.8-1.4-3.2-3.2-3.2H24.2l-1.7-2.4c-0.7-1-1.9-1.7-3.2-1.7h-8.5c-1.8,0-3.2,1.4-3.2,3.2
		v20.8c0,1.8,1.4,3.2,3.2,3.2h10.6l4.5,0.1h10.6c1.8,0,3.2-1.4,3.2-3.2v-5.8h8.9v32.5c0,1.2,1,2.2,2.2,2.2h12.5v8.3
		c0,1.2,1,2.2,2.2,2.2h16.6c1.2,0,2.2-1,2.2-2.2V86.7c0-1.2-1-2.2-2.2-2.2H65.5c-1.2,0-2.2,1-2.2,2.2v8.4H53V64.7h10.3v8.4
		c0,1.2,1,2.2,2.2,2.2h16.6c1.2,0,2.2-1,2.2-2.2V52c0-1.2-1-2.2-2.2-2.2H65.5c-1.2,0-2.2,1-2.2,2.2v8.4H53V30h10.3v8.4
		C63.3,39.6,64.3,40.6,65.5,40.6z M67.6,19.3h12.3v16.8H67.6V19.3z M35.4,69.4H12V50.9h7.1l1.7,2.4c0.7,1,1.9,1.7,3.2,1.7h11.4V69.4
		z M67.6,88.9h12.3v16.8H67.6V88.9z M67.6,54.1h12.3v16.8H67.6V54.1z"/>
</g>
</svg>
