<?xml version="1.0" encoding="utf-8"?>
<!-- Generator: Adobe Illustrator 23.0.4, SVG Export Plug-In . SVG Version: 6.00 Build 0)  -->
<svg version="1.1" id="Calque_1" xmlns="http://www.w3.org/2000/svg" xmlns:xlink="http://www.w3.org/1999/xlink" x="0px" y="0px"
	 viewBox="0 0 145.8 146.8" style="enable-background:new 0 0 145.8 146.8;" xml:space="preserve">
<style type="text/css">
	.st0{stroke:#FFFFFF;stroke-width:2;stroke-miterlimit:10;}
	.st1{fill:#FFFFFF;}
</style>
<g>
	<rect x="55.8" y="40.1" class="st0" width="14.1" height="8.7"/>
	<rect x="75.8" y="40.1" class="st0" width="14.1" height="8.7"/>
	<rect x="55.8" y="53.4" class="st0" width="14.1" height="8.7"/>
	<rect x="75.8" y="53.4" class="st0" width="14.1" height="8.7"/>
	<rect x="55.8" y="66.7" class="st0" width="14.1" height="8.7"/>
	<rect x="75.8" y="66.7" class="st0" width="14.1" height="8.7"/>
	<rect x="55.8" y="80" class="st0" width="14.1" height="8.7"/>
	<rect x="75.8" y="80" class="st0" width="14.1" height="8.7"/>
	<path class="st0" d="M111.1,40.2h-8.9v-6.2c0-3.8-3-6.8-6.8-6.8H80.1v-4.1H66v4.1H50.7c-3.8,0-6.8,3-6.8,6.8v6.2h-9.2
		c-3.8,0-6.8,3-6.8,6.8v58.8c0,3.8,3,6.8,6.8,6.8h76.4c3.8,0,6.8-3,6.8-6.8V47.1C117.9,43.3,114.9,40.2,111.1,40.2z M34.7,105.9
		V47.1h9.2v58.8H34.7z M80.1,105.9V93.2H66v12.7H50.7V34.1h44.6v71.8H80.1z M111.1,105.9h-8.9V47.1h8.9V105.9z"/>
</g>
<g>
	<circle class="st1" cx="56.5" cy="70.5" r="6.8"/>
	<circle class="st1" cx="73" cy="70.5" r="6.8"/>
	<circle class="st1" cx="55.8" cy="100.9" r="15.2"/>
	<circle class="st1" cx="71" cy="100.9" r="15.2"/>
	<circle class="st1" cx="88.2" cy="100.9" r="15.2"/>
	<circle class="st1" cx="89.6" cy="70.5" r="6.8"/>
	<g>
		<path d="M61.2,128.7h40.4v-17.5h5.4V100c-0.1-9.5-7.8-17.2-17.3-17.1c-2.9,0-5.8,0.8-8.3,2.2c-5.2-3-11.7-3-16.9,0
			c-8.3-4.6-18.8-1.7-23.4,6.6c-1.4,2.5-2.2,5.4-2.2,8.3v11.2h5.4v17.5H61.2z M89.9,86.9c7.2,0.1,13,5.9,13.1,13.1v7.2h-5.4v17.5
			H84.7v-13.5h5.4V100c0-4.6-1.8-9-5.1-12.2C86.5,87.2,88.2,86.9,89.9,86.9z M73,86.9c7.2,0.1,13,5.9,13.1,13.1v7.2h-5.4v17.5H75
			v-10.2h-4v10.2h-5.8v-17.5h-5.4V100C59.8,92.8,65.7,86.9,73,86.9z M42.9,107.2V100c0.1-7.3,6-13.2,13.3-13.1
			c1.6,0,3.2,0.3,4.7,0.9c-3.3,3.2-5.1,7.6-5.1,12.2v11.2h5.4v13.5H48.3v-17.5H42.9z"/>
		<path d="M81.3,65.7c0,0-0.7-1.3-3.5-3.2c-4.2-2.6-10.5-1.2-13.1,3.4c-0.1,0.1-0.1,0.2-0.2,0.3c-2.5-4.7-8.4-6.4-13-3.8
			s-6.4,8.4-3.8,13c2.5,4.7,8.4,6.4,13,3.8c1.6-0.9,2.9-2.2,3.8-3.8c2.5,4.7,8.3,6.4,13,3.9c1.7-0.9,3-2.2,3.9-3.9
			c2.5,4.7,8.3,6.4,13,3.9c2.3-1.2,4.4-3.8,4.7-5.9c0.5-2.3,0.3-4,0.3-4c-0.7-5.3-5.5-8.9-10.8-8.2C85.8,61.5,82.8,63.3,81.3,65.7
			L81.3,65.7z M56.1,76.3c-3.1,0-5.6-2.5-5.6-5.6c0-3.1,2.5-5.6,5.6-5.6c3.1,0,5.6,2.5,5.6,5.6l0,0C61.7,73.8,59.2,76.3,56.1,76.3z
			 M73,76.3c-3.1,0-5.6-2.5-5.6-5.6s2.5-5.6,5.6-5.6s5.6,2.5,5.6,5.6c0,0,0,0,0,0C78.6,73.8,76.1,76.3,73,76.3z M89.9,76.3
			c-3.1,0-5.6-2.5-5.6-5.6s2.5-5.6,5.6-5.6s5.6,2.5,5.6,5.6c0,0,0,0,0,0C95.5,73.8,93,76.3,89.9,76.3L89.9,76.3z"/>
	</g>
</g>
</svg>
